<?xml version="1.0" encoding="UTF-8"?>
<svg version="1.1" xmlns="http://www.w3.org/2000/svg" width="512" height="512">
<path d="M0 0 C12.09938362 -0.33205856 21.28180966 4.13142054 30.05461597 12.40170097 C31.74718287 14.07378637 33.42907517 15.75672355 35.102005 17.44845581 C36.03807136 18.37898777 36.97413772 19.30951973 37.93856972 20.26824963 C40.51488538 22.82991063 43.07870822 25.40375484 45.64050639 27.97992301 C48.4137423 30.76432179 51.19854541 33.53711182 53.9818573 36.31143188 C59.42357584 41.73925286 64.85453975 47.17771191 70.2817677 52.62001787 C76.6070292 58.96217959 82.94235413 65.29424915 89.2779391 71.62609519 C100.58346155 82.92574562 111.87895002 94.23537423 123.16918945 105.55029297 C134.11670907 116.52173993 145.07261874 127.48472233 156.03735352 138.43896484 C167.98882948 150.37902474 179.93553787 162.3238178 191.87409085 174.27680027 C193.14767291 175.55190812 194.42125768 176.82701325 195.6948452 178.10211563 C196.3214089 178.72943715 196.94797261 179.35675867 197.59352309 180.00308993 C202.00298118 184.41728484 206.41572053 188.82818309 210.82967567 193.23788071 C216.20964069 198.61291298 221.58409522 203.99338538 226.95168123 209.38078056 C229.68883069 212.12778319 232.42828065 214.87237834 235.17430496 217.61051178 C238.15360868 220.58142931 241.12110497 223.5638704 244.08760071 226.5475769 C245.38622692 227.83718805 245.38622692 227.83718805 246.711088 229.15285194 C255.89405675 238.43294284 260.83677237 246.73822324 260.91552734 260.0390625 C259.9096052 290.82676993 228.8878988 323.64833323 207.81494141 343.69677734 C203.81600548 347.41125419 199.60761048 350.80745694 195.27734375 354.125 C194.75011719 354.53395508 194.22289062 354.94291016 193.6796875 355.36425781 C128.35352136 405.79878631 44.75409494 421.92047327 -36 411.84375 C-36.97557861 411.72684814 -37.95115723 411.60994629 -38.95629883 411.48950195 C-40.72047247 411.25705016 -42.4800554 410.98358243 -44.22924805 410.65698242 C-48.5021571 409.92702149 -50.23078141 409.88260321 -54.25 411.86328125 C-55.40206874 412.70063199 -56.53829755 413.56008807 -57.66015625 414.4375 C-58.96478928 415.37403183 -60.27356186 416.30481795 -61.5859375 417.23046875 C-62.26221191 417.71177246 -62.93848633 418.19307617 -63.63525391 418.68896484 C-76.28324847 427.39019339 -90.23365221 433.25797544 -104.72265625 438.125 C-105.56666992 438.40859375 -106.41068359 438.6921875 -107.28027344 438.984375 C-132.31979454 447.18580949 -160.84370611 453.06014552 -185.7890625 441.6875 C-202.67820154 432.69195324 -214.96089319 419.43782331 -221.10546875 401.2421875 C-227.64003739 379.58730805 -222.29837656 360.46882309 -213.56640625 340.44140625 C-209.89873651 332.61656412 -209.89873651 332.61656412 -208.890625 324.22265625 C-210.09679784 321.18174162 -212.02702036 319.02787409 -214.09765625 316.5 C-229.80971472 296.70120481 -241.22930525 273.45215518 -247.47265625 249 C-247.67141357 248.2255957 -247.8701709 247.45119141 -248.07495117 246.65332031 C-251.24126724 233.59718632 -252.10043956 220.74324066 -252.03515625 207.375 C-252.0330011 206.57963837 -252.03084595 205.78427673 -252.02862549 204.96481323 C-251.97848754 193.43612717 -251.6384762 182.33609382 -248.72265625 171.125 C-248.51866211 170.30612305 -248.31466797 169.48724609 -248.10449219 168.64355469 C-239.9549658 136.43691109 -224.32411636 105.84518532 -200.19921875 82.6015625 C-198.56309825 81.02733668 -198.56309825 81.02733668 -196.78515625 78.625 C-193.800581 75.00733303 -190.29103711 72.15410787 -186.72265625 69.125 C-185.81773437 68.320625 -184.9128125 67.51625 -183.98046875 66.6875 C-133.5165281 22.19879322 -66.01444733 3.03079242 0 0 Z " fill="#FAF0CF" transform="translate(251.72265625,31.875)"/>
<path d="M0 0 C12.09938362 -0.33205856 21.28180966 4.13142054 30.05461597 12.40170097 C31.74718287 14.07378637 33.42907517 15.75672355 35.102005 17.44845581 C36.03807136 18.37898777 36.97413772 19.30951973 37.93856972 20.26824963 C40.51488538 22.82991063 43.07870822 25.40375484 45.64050639 27.97992301 C48.4137423 30.76432179 51.19854541 33.53711182 53.9818573 36.31143188 C59.42357584 41.73925286 64.85453975 47.17771191 70.2817677 52.62001787 C76.6070292 58.96217959 82.94235413 65.29424915 89.2779391 71.62609519 C100.58346155 82.92574562 111.87895002 94.23537423 123.16918945 105.55029297 C134.11670907 116.52173993 145.07261874 127.48472233 156.03735352 138.43896484 C167.98882948 150.37902474 179.93553787 162.3238178 191.87409085 174.27680027 C193.14767291 175.55190812 194.42125768 176.82701325 195.6948452 178.10211563 C196.3214089 178.72943715 196.94797261 179.35675867 197.59352309 180.00308993 C202.00298118 184.41728484 206.41572053 188.82818309 210.82967567 193.23788071 C216.20964069 198.61291298 221.58409522 203.99338538 226.95168123 209.38078056 C229.68883069 212.12778319 232.42828065 214.87237834 235.17430496 217.61051178 C238.15360868 220.58142931 241.12110497 223.5638704 244.08760071 226.5475769 C245.38622692 227.83718805 245.38622692 227.83718805 246.711088 229.15285194 C255.89405675 238.43294284 260.83677237 246.73822324 260.91552734 260.0390625 C259.9096052 290.82676993 228.8878988 323.64833323 207.81494141 343.69677734 C203.81600548 347.41125419 199.60761048 350.80745694 195.27734375 354.125 C194.75011719 354.53395508 194.22289062 354.94291016 193.6796875 355.36425781 C128.35352136 405.79878631 44.75409494 421.92047327 -36 411.84375 C-36.97557861 411.72684814 -37.95115723 411.60994629 -38.95629883 411.48950195 C-40.72047247 411.25705016 -42.4800554 410.98358243 -44.22924805 410.65698242 C-48.5021571 409.92702149 -50.23078141 409.88260321 -54.25 411.86328125 C-55.40206874 412.70063199 -56.53829755 413.56008807 -57.66015625 414.4375 C-58.96478928 415.37403183 -60.27356186 416.30481795 -61.5859375 417.23046875 C-62.26221191 417.71177246 -62.93848633 418.19307617 -63.63525391 418.68896484 C-76.28324847 427.39019339 -90.23365221 433.25797544 -104.72265625 438.125 C-105.56666992 438.40859375 -106.41068359 438.6921875 -107.28027344 438.984375 C-132.31979454 447.18580949 -160.84370611 453.06014552 -185.7890625 441.6875 C-202.67820154 432.69195324 -214.96089319 419.43782331 -221.10546875 401.2421875 C-227.64003739 379.58730805 -222.29837656 360.46882309 -213.56640625 340.44140625 C-209.89873651 332.61656412 -209.89873651 332.61656412 -208.890625 324.22265625 C-210.09679784 321.18174162 -212.02702036 319.02787409 -214.09765625 316.5 C-229.80971472 296.70120481 -241.22930525 273.45215518 -247.47265625 249 C-247.67141357 248.2255957 -247.8701709 247.45119141 -248.07495117 246.65332031 C-251.24126724 233.59718632 -252.10043956 220.74324066 -252.03515625 207.375 C-252.0330011 206.57963837 -252.03084595 205.78427673 -252.02862549 204.96481323 C-251.97848754 193.43612717 -251.6384762 182.33609382 -248.72265625 171.125 C-248.51866211 170.30612305 -248.31466797 169.48724609 -248.10449219 168.64355469 C-239.9549658 136.43691109 -224.32411636 105.84518532 -200.19921875 82.6015625 C-198.56309825 81.02733668 -198.56309825 81.02733668 -196.78515625 78.625 C-193.800581 75.00733303 -190.29103711 72.15410787 -186.72265625 69.125 C-185.81773437 68.320625 -184.9128125 67.51625 -183.98046875 66.6875 C-133.5165281 22.19879322 -66.01444733 3.03079242 0 0 Z M-160.72265625 109.125 C-161.563125 109.89328125 -162.40359375 110.6615625 -163.26953125 111.453125 C-186.88033407 134.05921281 -204.17632938 166.65077945 -204.92578125 199.65234375 C-205.3677263 240.90610764 -191.6746671 274.33031108 -162.72265625 304.125 C-161.70425109 305.02359278 -160.68386941 305.919959 -159.66015625 306.8125 C-157.47640003 309.41891872 -157.40951488 310.64346496 -157.51098633 313.9543457 C-157.95547594 318.51254306 -159.02825238 322.92908145 -160.09765625 327.375 C-160.35587158 328.45386475 -160.61408691 329.53272949 -160.88012695 330.64428711 C-164.31814401 344.32266249 -169.44179531 357.42174718 -174.67236328 370.49951172 C-177.03740673 376.52973865 -178.33738877 382.1709755 -175.80859375 388.36328125 C-172.68877556 393.70722789 -168.77721622 397.4369537 -163.34765625 400.4375 C-156.71795835 402.17384945 -150.05010519 400.86536556 -143.47265625 399.5 C-142.60568115 399.32033691 -141.73870605 399.14067383 -140.84545898 398.95556641 C-116.36959132 393.70205857 -93.11197596 384.97377126 -74.26171875 368.05078125 C-73.68873047 367.54216553 -73.11574219 367.0335498 -72.52539062 366.50952148 C-71.4430821 365.5357273 -70.37759159 364.54274839 -69.33398438 363.52758789 C-66.42552346 360.87606664 -64.76436918 360.12945882 -60.8125 359.70703125 C-56.81582485 359.96867317 -53.01304033 360.88440655 -49.16015625 361.9375 C-31.12659978 366.49120323 -12.89123123 367.62487488 5.6484375 367.51611328 C8.90797509 367.49997211 12.16627971 367.51610912 15.42578125 367.53515625 C28.95443568 367.54840471 41.95853081 366.48020076 55.27734375 364.125 C56.13490768 363.97540329 56.99247162 363.82580658 57.87602234 363.67167664 C97.15450316 356.75719807 138.10108475 341.95381102 168.27734375 315.125 C169.07785156 314.43277344 169.87835938 313.74054688 170.703125 313.02734375 C190.73823777 295.42072949 208.62376931 274.8394834 217.27734375 249.125 C217.27734375 247.805 217.27734375 246.485 217.27734375 245.125 C212.09222967 243.59923677 206.88886679 242.23362951 201.59765625 241.12890625 C155.4890067 231.4293665 110.25243142 210.83381928 75.65625 178.3515625 C73.55954243 176.38912685 71.41407061 174.53257701 69.21484375 172.6875 C55.41283354 160.59324359 44.3729615 144.96094922 35.27734375 129.125 C34.31248047 127.51044922 34.31248047 127.51044922 33.328125 125.86328125 C19.23100602 101.53673218 14.15994279 74.67241829 11.27734375 47.125 C-51.44324242 45.32727619 -114.33977352 66.53551288 -160.72265625 109.125 Z " fill="#A3DEFD" transform="translate(251.72265625,31.875)"/>
<path d="M0 0 C4.8970664 0.45640381 7.23687978 1.58688596 10.77519512 4.97147274 C11.63917774 5.78920347 12.50316035 6.6069342 13.39332426 7.44944465 C14.25352725 8.29112792 15.11373025 9.13281118 16 10 C16.7792133 10.75366541 17.5584266 11.50733082 18.36125243 12.28383458 C20.79112762 14.65719835 23.19634875 17.05340458 25.59687805 19.45643616 C26.5084431 20.36503008 27.42000814 21.273624 28.35919636 22.20975107 C30.86032058 24.70290287 33.35839216 27.19909285 35.8559047 29.69586194 C38.56098116 32.39907086 41.26889778 35.09943241 43.97639465 37.80021667 C49.87952858 43.6898418 55.7789494 49.5831766 61.67754006 55.47735143 C65.36399087 59.16103013 69.05117437 62.84397486 72.73848534 66.52679253 C82.96005593 76.73618588 93.1806904 86.94651433 103.39787006 97.16030216 C104.37617108 98.13827383 104.37617108 98.13827383 105.37423576 99.13600251 C106.02791592 99.78946439 106.68159607 100.44292626 107.35508472 101.11619002 C108.67951131 102.44017315 110.00393945 103.76415473 111.32836914 105.08813477 C111.98531905 105.74486325 112.64226896 106.40159173 113.31912645 107.07822108 C123.97941809 117.73455916 134.64645488 128.38411804 145.31639168 139.03079779 C156.28687906 149.97756655 167.25172722 160.92995743 178.21094483 171.88800901 C184.35812984 178.03427816 190.50770017 184.17811745 196.66350746 190.31575203 C201.90044594 195.53728349 207.13220693 200.76393408 212.35731874 205.99730141 C215.02151145 208.66539689 217.68805088 211.33102812 220.36121368 213.99013901 C223.2616824 216.8754999 226.15034251 219.77240528 229.03804016 222.67054749 C230.30164784 223.92207055 230.30164784 223.92207055 231.59078294 225.19887692 C242.61646419 236.31805621 242.61646419 236.31805621 243.3125 243 C243.1578125 243.99 243.1578125 243.99 243 245 C235.66345399 245.18534432 228.64345158 244.45819255 221.375 243.5 C214.85783717 242.64692798 208.58149201 241.95731847 202 242 C199.68359375 241.51953125 199.68359375 241.51953125 197.4375 240.8125 C193.7614268 239.73012838 190.09728961 238.78567439 186.34765625 238.00390625 C140.23397476 228.34788123 94.96259538 207.69999656 60.375 175.22265625 C58.30036186 173.28109523 56.17828555 171.44755747 54 169.625 C39.78630163 157.17356911 28.36769697 141.30965347 19 125 C18.35675781 123.92363281 17.71351563 122.84726563 17.05078125 121.73828125 C-2.8850659 87.33619068 -10.20795691 41.79427116 -0.875 3.0625 C-0.58625 2.051875 -0.2975 1.04125 0 0 Z " fill="#8EA3E2" transform="translate(267,36)"/>
<path d="M0 0 C0.06993164 0.66829834 0.13986328 1.33659668 0.21191406 2.02514648 C4.45088564 41.74676362 16.51341104 76.7932759 42 108 C42.45068848 108.55896973 42.90137695 109.11793945 43.36572266 109.69384766 C82.08373209 157.46177095 141.27240368 184.54871537 200.453125 196.45703125 C203 197 203 197 206 198 C205.40133244 202.80412239 204.00331838 206.97159092 202.0625 211.375 C201.76182617 212.06110352 201.46115234 212.74720703 201.15136719 213.45410156 C197.54022516 221.40295173 192.94173913 228.81239815 188 236 C187.55035889 236.72993164 187.10071777 237.45986328 186.63745117 238.21191406 C185 240 185 240 182.94360352 240.27734375 C176.13902183 239.30456181 169.56532157 237.82005445 162.9375 236 C161.81134277 235.69239746 160.68518555 235.38479492 159.52490234 235.06787109 C125.6484714 225.57831786 93.05127339 210.88735627 64 191 C63.24944336 190.48920898 62.49888672 189.97841797 61.72558594 189.45214844 C57.13391713 186.32488093 52.56012768 183.17306327 48 180 C47.896875 180.7425 47.79375 181.485 47.6875 182.25 C46.34004265 187.63982942 42.18391537 191.48318506 37.7109375 194.58984375 C28.73943007 199.76571342 18.17748481 200.59286428 8.078125 198.3515625 C0.71134894 195.67481468 -5.54464309 191.03331004 -9.5 184.1875 C-11.81854065 178.83622537 -12.01088928 173.37361868 -10.33984375 167.796875 C-7.34052896 160.99323452 -1.5726995 156.28634975 5 153 C5.99 153 6.98 153 8 153 C7.67128906 152.28070313 7.34257812 151.56140625 7.00390625 150.8203125 C5.96780788 147.90956145 5.89639595 145.93496831 5.9375 142.875 C5.44786786 136.63426499 2.74975444 133.68573588 -1.33203125 129.13671875 C-6.69535656 123.05642459 -10.74906758 115.8750657 -15 109 C-15.36480469 108.41911621 -15.72960937 107.83823242 -16.10546875 107.23974609 C-31.73184646 82.19114159 -40.81013014 53.07053202 -45 24 C-45.1038501 23.28682617 -45.2077002 22.57365234 -45.31469727 21.83886719 C-45.87811007 17.70027238 -46.1099333 13.67413011 -46.0625 9.5 C-46.05347656 8.4584375 -46.04445312 7.416875 -46.03515625 6.34375 C-46.02355469 5.5703125 -46.01195312 4.796875 -46 4 C-41.42396817 1.80424279 -36.98529952 1.34679185 -32 0.875 C-31.13729492 0.79008301 -30.27458984 0.70516602 -29.38574219 0.61767578 C-19.59479356 -0.25783726 -9.8196564 -0.17746367 0 0 Z " fill="#F9DFBD" transform="translate(263,79)"/>
<path d="M0 0 C3.30382439 0.96387967 4.30039427 2.68333254 6.03515625 5.59375 C6.37675865 8.41920713 6.50840947 10.79094758 6.41015625 13.59375 C6.40886719 14.29242188 6.40757812 14.99109375 6.40625 15.7109375 C6.33758796 19.75436892 5.8117754 22.95523398 4.03515625 26.59375 C5.00453125 26.75875 5.97390625 26.92375 6.97265625 27.09375 C13.41221805 28.9298776 18.23828735 34.14347422 22.09765625 39.40625 C23.89894161 45.53062022 24.13186171 51.91172064 21.53515625 57.84375 C17.86731213 64.1779347 11.77346716 68.89842564 5.03515625 71.59375 C-3.83840028 73.78878767 -14.3208293 73.92740956 -22.6796875 69.9921875 C-28.70394598 66.30554727 -34.87626737 61.55567127 -36.96484375 54.59375 C-37.70008762 48.28557075 -37.41608868 42.0673805 -33.96484375 36.59375 C-27.12009451 28.70929201 -19.14328712 25.11094199 -8.96484375 23.59375 C-8.9805542 23.00360107 -8.99626465 22.41345215 -9.01245117 21.80541992 C-9.07482314 19.13079414 -9.11384032 16.45632136 -9.15234375 13.78125 C-9.17748047 12.85248047 -9.20261719 11.92371094 -9.22851562 10.96679688 C-9.23818359 10.07412109 -9.24785156 9.18144531 -9.2578125 8.26171875 C-9.27352295 7.43953857 -9.2892334 6.6173584 -9.30541992 5.77026367 C-8.96484375 3.59375 -8.96484375 3.59375 -7.69262695 1.83325195 C-5.28015006 0.1025546 -2.9003799 0.13412161 0 0 Z " fill="#E8899E" transform="translate(124.96484375,205.40625)"/>
<path d="M0 0 C3.30993106 0.96566127 4.3027942 2.67326353 6.03515625 5.59375 C6.34897755 8.45556993 6.46391244 10.88209904 6.34765625 13.71875 C6.3331543 14.79189453 6.3331543 14.79189453 6.31835938 15.88671875 C6.25087104 19.02639331 6.03330833 21.59929377 5.03515625 24.59375 C5.73640625 24.69171875 6.43765625 24.7896875 7.16015625 24.890625 C17.05539085 26.45020002 23.08448166 28.84783049 29.58984375 36.59375 C33.56920113 42.10032021 33.75810159 46.92040836 33.03515625 53.59375 C30.86704901 61.49773588 24.67731544 66.45130342 17.84765625 70.46875 C9.39263192 73.85075973 -1.82235875 74.14882219 -10.40234375 71.03125 C-17.3394639 67.74160068 -23.24153718 62.91272097 -26.33984375 55.76171875 C-27.96297395 50.13148585 -27.77126325 44.71740289 -25.40234375 39.34375 C-22.16178592 33.65553679 -16.76894912 29.49580269 -10.96484375 26.59375 C-9.97484375 26.59375 -8.98484375 26.59375 -7.96484375 26.59375 C-8.29484375 25.60375 -8.62484375 24.61375 -8.96484375 23.59375 C-9.21681305 20.26470111 -9.19604035 16.93135403 -9.21484375 13.59375 C-9.23546875 12.67851562 -9.25609375 11.76328125 -9.27734375 10.8203125 C-9.2825 9.94117188 -9.28765625 9.06203125 -9.29296875 8.15625 C-9.3069873 6.95162109 -9.3069873 6.95162109 -9.32128906 5.72265625 C-8.43493989 0.42884473 -4.81285429 0.22255974 0 0 Z " fill="#E8899E" transform="translate(278.96484375,205.40625)"/>
<path d="M0 0 C9.13239831 0.63918215 18.21749083 1.52321246 27.3125 2.5625 C29.15618164 2.77036133 29.15618164 2.77036133 31.03710938 2.98242188 C34.02497681 3.31957423 37.01259336 3.65879303 40 4 C40.33 3.34 40.66 2.68 41 2 C45.30038415 14.90115246 40.87207612 27.13925851 35.16259766 38.75 C33.1987245 42.55072555 31.11887835 46.28386404 29 50 C19.19887644 49.40423686 9.52433628 48.249829 -0.19677734 46.89819336 C-2.65484448 46.5583741 -5.1144025 46.23118518 -7.57421875 45.90429688 C-9.14593821 45.68826165 -10.717557 45.47149247 -12.2890625 45.25390625 C-13.02025299 45.15799698 -13.75144348 45.06208771 -14.50479126 44.96327209 C-18.00177332 44.46479684 -20.00835704 43.99442864 -23 42 C-22.3709375 41.1028125 -21.741875 40.205625 -21.09375 39.28125 C-12.52036605 26.8580076 -6.10725511 13.77930037 0 0 Z " fill="#7ACEF9" transform="translate(470,277)"/>
<path d="M0 0 C0.73089844 0.16242187 1.46179688 0.32484375 2.21484375 0.4921875 C4.0625 1.125 4.0625 1.125 6.0625 3.125 C5.4025 3.125 4.7425 3.125 4.0625 3.125 C3.84614472 4.89190145 3.62992175 6.65881913 3.4140625 8.42578125 C3.15896638 10.38435255 2.87975115 12.33983048 2.5859375 14.29296875 C1.03744855 24.88971774 0.47503428 35.43167715 0.0625 46.125 C-0.86908936 46.18034912 -1.80067871 46.23569824 -2.76049805 46.29272461 C-6.28122296 46.50244485 -9.80188427 46.71318034 -13.32250977 46.92456055 C-14.83420493 47.01512441 -16.34592305 47.10530604 -17.85766602 47.19506836 C-27.22531601 47.7515932 -36.58354493 48.36585324 -45.9375 49.125 C-46.51494009 12.85732028 -46.51494009 12.85732028 -42.9375 2.125 C-40.30935991 0.81092996 -38.08683988 0.80661273 -35.15234375 0.58984375 C-33.98123047 0.50283203 -32.81011719 0.41582031 -31.60351562 0.32617188 C-30.37310547 0.23916016 -29.14269531 0.15214844 -27.875 0.0625 C-26.67166016 -0.02837891 -25.46832031 -0.11925781 -24.22851562 -0.21289062 C-6.41103543 -1.50711502 -6.41103543 -1.50711502 0 0 Z " fill="#7ACEFA" transform="translate(262.9375,32.875)"/>
<path d="M0 0 C0.90814453 -0.020625 1.81628906 -0.04125 2.75195312 -0.0625 C9.42563063 -0.10071719 15.97628248 0.32484154 21.46142578 4.50732422 C24.51558708 7.69347548 25.42394077 10.70171504 25.45629883 15.06103516 C25.42947021 15.74214355 25.4026416 16.42325195 25.375 17.125 C25.35912842 17.83317871 25.34325684 18.54135742 25.3269043 19.27099609 C25.08470938 24.81911288 24.10055204 28.81167233 20.8125 33.25 C19.760625 34.8278125 19.760625 34.8278125 18.6875 36.4375 C14.66078601 40.93215017 9.12838328 43.67484679 3.22265625 44.69921875 C-4.66830168 45.05181934 -10.19509012 42.30503981 -15.9375 37.0625 C-22.50588906 29.93797731 -23.87407088 23.03276829 -23.57421875 13.4375 C-23.0467925 9.09022912 -22.27160175 7.33410175 -19.1875 4.25 C-13.1095571 -0.1565086 -7.24287406 0.04026615 0 0 Z " fill="#505761" transform="translate(199.1875,218.75)"/>
<path d="M0 0 C3.29703418 0.96189865 4.29399902 2.69563961 6.03515625 5.59375 C6.45763599 8.41125284 6.6418881 10.72903197 6.59765625 13.53125 C6.62150391 14.22154297 6.64535156 14.91183594 6.66992188 15.62304688 C6.6589305 19.48834858 6.05511958 22.07805593 3.7265625 25.09375 C1.03515625 27.59375 1.03515625 27.59375 -2.58984375 27.65625 C-5.88345114 26.6193736 -6.94521941 26.23554772 -8.96484375 23.59375 C-9.35302734 21.46484375 -9.35302734 21.46484375 -9.36328125 19.03125 C-9.36714844 18.15210938 -9.37101562 17.27296875 -9.375 16.3671875 C-9.36339844 15.45195312 -9.35179688 14.53671875 -9.33984375 13.59375 C-9.35724609 12.22089844 -9.35724609 12.22089844 -9.375 10.8203125 C-9.37113281 9.94117188 -9.36726563 9.06203125 -9.36328125 8.15625 C-9.35820557 6.95162109 -9.35820557 6.95162109 -9.35302734 5.72265625 C-8.39037456 0.44320201 -4.8412874 0.22387456 0 0 Z " fill="#535A63" transform="translate(124.96484375,205.40625)"/>
<path d="M0 0 C3.30081857 0.96300273 4.29623516 2.68917852 6.03515625 5.59375 C6.42999392 8.4272909 6.59749173 10.77826429 6.53515625 13.59375 C6.550625 14.29242188 6.56609375 14.99109375 6.58203125 15.7109375 C6.55468501 19.33431426 6.12973975 21.44357619 4.1875 24.52734375 C2.03515625 26.59375 2.03515625 26.59375 -0.90234375 27.65625 C-3.96484375 27.59375 -3.96484375 27.59375 -6.625 26.21875 C-10.15242595 22.26143741 -9.62497361 18.65176631 -9.46484375 13.53125 C-9.46871094 12.16516602 -9.46871094 12.16516602 -9.47265625 10.77148438 C-9.37512257 4.1538243 -9.37512257 4.1538243 -7.68164062 1.84204102 C-5.27772523 0.09414292 -2.90152781 0.1341747 0 0 Z " fill="#535962" transform="translate(278.96484375,205.40625)"/>
</svg>
