<?xml version="1.0" standalone="no"?>
<!DOCTYPE svg PUBLIC "-//W3C//DTD SVG 20010904//EN"
 "http://www.w3.org/TR/2001/REC-SVG-20010904/DTD/svg10.dtd">
<svg version="1.0" xmlns="http://www.w3.org/2000/svg"
 width="214.000000pt" height="430.000000pt" viewBox="0 0 214.000000 430.000000"
 preserveAspectRatio="xMidYMid meet">

<g transform="translate(0.000000,430.000000) scale(0.100000,-0.100000)"
fill="#000000" stroke="none">
<path d="M1010 4281 l-135 -16 -12 -35 c-8 -23 -12 -96 -11 -210 1 -96 -3
-185 -8 -198 -6 -15 -6 -45 0 -82 5 -33 6 -63 2 -67 -4 -5 -87 -6 -184 -3
-255 7 -403 6 -435 -3 -44 -12 -50 -43 -48 -237 2 -150 5 -181 21 -215 33 -68
33 -68 347 -71 155 -1 287 -5 293 -9 7 -4 10 -204 10 -603 0 -655 -4 -700 -58
-776 -15 -23 -48 -51 -76 -65 -46 -23 -60 -25 -190 -26 -153 0 -149 1 -301
-83 -27 -15 -72 -35 -100 -44 -54 -19 -120 -56 -113 -64 3 -2 30 7 61 21 72
33 127 43 127 23 0 -35 -80 -177 -126 -223 l-49 -49 43 24 c46 26 72 56 117
135 46 82 63 96 104 89 73 -12 74 -22 11 -69 -19 -14 -29 -25 -23 -25 7 0 46
28 88 62 111 91 125 101 132 95 3 -3 -3 -29 -12 -57 -21 -64 -65 -98 -172
-134 -75 -25 -143 -63 -143 -79 0 -5 10 -1 22 7 30 22 37 20 30 -7 -5 -19 -2
-18 21 9 27 31 86 54 141 54 31 0 32 -3 5 -46 -24 -40 -97 -77 -193 -99 -38
-9 -85 -27 -105 -41 -40 -27 -35 -32 10 -8 45 23 53 13 24 -26 -15 -19 -34
-48 -42 -65 -12 -23 -7 -20 26 17 52 58 95 85 149 94 41 6 42 6 42 -22 0 -38
-18 -70 -79 -144 -63 -75 -67 -97 -7 -34 25 25 51 44 58 42 14 -5 17 -62 5
-118 -8 -35 -7 -35 7 -10 8 14 20 64 26 110 15 118 25 143 79 204 25 30 71 98
100 152 30 54 75 119 100 145 39 40 54 48 96 54 28 4 78 14 113 22 35 8 65 13
68 10 9 -9 -15 -55 -41 -75 -14 -11 -56 -30 -92 -42 -54 -17 -183 -91 -183
-104 0 -2 9 -2 20 1 17 5 20 0 20 -31 0 -30 -4 -38 -27 -47 -69 -26 -99 -46
-117 -79 l-19 -35 29 27 c46 42 79 50 171 43 46 -4 85 -11 88 -15 6 -9 -48
-53 -79 -64 -10 -3 -63 -13 -118 -21 -103 -16 -151 -33 -161 -60 -8 -19 -8
-19 44 5 47 21 94 26 104 11 6 -11 -48 -68 -113 -119 -23 -18 -42 -38 -42 -43
0 -6 14 1 31 15 72 61 77 6 10 -99 -22 -33 -42 -73 -46 -90 -5 -28 -5 -28 5
-6 6 13 23 39 39 57 16 18 51 74 76 124 47 91 78 123 129 136 29 7 29 7 22
-32 -11 -62 -44 -121 -103 -185 -30 -32 -76 -94 -102 -136 -53 -87 -74 -135
-40 -90 11 15 24 27 29 27 9 0 25 -66 39 -165 8 -56 9 -52 10 56 2 176 20 221
120 289 27 19 35 20 42 9 20 -31 9 -101 -31 -194 -40 -93 -48 -148 -30 -190 6
-15 9 -7 9 31 1 50 26 132 38 121 3 -3 9 -21 13 -39 l8 -33 2 40 c1 22 7 60
13 85 15 57 44 62 69 10 24 -48 22 -102 -6 -198 -35 -117 -40 -162 -23 -203
15 -34 15 -34 10 27 -7 75 8 90 37 37 12 -21 18 -29 14 -18 -4 11 -9 48 -12
82 -3 50 0 70 17 103 33 64 28 125 -19 237 -48 115 -53 172 -17 200 32 25 126
68 133 60 12 -11 -8 -49 -52 -98 -24 -27 -44 -55 -44 -62 0 -6 7 -1 16 11 8
12 22 22 31 22 13 0 15 -9 10 -57 -7 -64 8 -55 19 12 3 22 19 69 34 105 15 36
31 80 35 97 14 69 55 43 55 -35 0 -34 -11 -66 -49 -136 -67 -124 -77 -165 -57
-243 19 -74 20 -104 3 -170 -15 -56 -8 -63 13 -13 26 62 45 19 38 -83 -4 -57
-4 -60 8 -32 19 43 17 105 -7 230 -23 121 -20 170 13 223 18 29 22 32 30 18 5
-9 12 -39 15 -68 9 -75 22 -31 16 52 -5 65 -5 65 46 141 28 43 58 82 66 89 23
19 38 -24 33 -100 -3 -60 -11 -83 -66 -192 -58 -115 -62 -127 -61 -188 0 -36
7 -83 15 -105 13 -39 14 -38 9 42 -6 118 22 195 48 132 l14 -34 -4 50 c-4 43
0 57 26 97 17 27 35 48 41 48 21 0 9 -101 -30 -255 -22 -87 -40 -172 -40 -190
0 -17 9 -65 20 -106 11 -41 20 -101 21 -134 l1 -60 10 45 c7 31 7 66 -1 112
-13 78 -15 188 -3 188 14 0 103 -156 118 -207 l14 -48 -5 53 c-6 59 -16 85
-58 155 -46 76 -50 108 -20 201 14 45 27 85 30 89 3 5 16 -2 30 -15 23 -21 25
-28 20 -88 -3 -36 -8 -74 -11 -85 -4 -11 3 -2 15 20 12 22 23 42 26 45 10 11
23 -30 24 -80 1 -50 2 -52 10 -25 15 47 3 110 -45 230 -38 95 -45 123 -50 210
-3 55 -19 164 -34 243 -16 78 -27 142 -24 142 17 0 76 -98 99 -165 l13 -40 -6
58 c-6 58 2 71 26 42 7 -9 15 -13 18 -10 3 3 -16 28 -43 55 -35 36 -46 53 -38
61 15 15 77 1 109 -24 24 -18 26 -25 20 -66 -3 -25 -20 -89 -37 -141 -38 -120
-48 -238 -24 -294 21 -50 27 -42 16 20 -13 68 0 89 28 43 23 -38 29 -19 6 21
-19 33 -19 130 -1 156 14 18 15 17 30 -17 24 -56 39 -165 32 -227 -16 -131
-18 -199 -11 -308 4 -67 11 -114 17 -114 7 0 8 36 3 109 -6 93 -4 122 14 193
11 46 24 119 28 163 l8 80 25 -50 c19 -40 25 -70 28 -145 2 -53 0 -111 -6
-130 -6 -19 -15 -50 -21 -67 -14 -46 -5 -41 17 11 11 24 25 46 30 50 21 13 35
-36 29 -102 -5 -70 8 -66 19 4 4 28 -1 66 -15 118 -13 46 -21 107 -21 154 -1
86 -23 154 -78 234 -39 58 -57 122 -48 172 l8 39 35 -35 c24 -24 41 -55 54
-99 l19 -64 -3 58 c-3 49 -1 57 14 57 9 0 27 -8 40 -19 23 -18 23 -19 11 -112
-15 -110 -10 -145 31 -218 l30 -53 -16 -52 c-15 -48 -11 -48 19 1 18 28 35 4
43 -58 6 -52 7 -53 14 -21 9 43 3 66 -44 178 -37 86 -51 169 -33 187 11 11 73
-96 74 -125 0 -16 5 -28 10 -28 6 0 10 9 10 20 0 11 4 20 8 20 14 0 50 -44 66
-80 9 -20 15 -27 16 -17 0 26 -32 84 -83 149 -65 84 -72 105 -59 195 6 41 15
80 20 85 39 39 117 -115 141 -277 7 -47 9 -52 10 -23 0 20 6 40 11 43 16 10
66 -49 84 -98 l16 -42 -4 38 c-3 24 -24 65 -55 112 -28 40 -53 84 -56 98 -12
46 15 41 66 -12 27 -28 49 -48 49 -45 0 17 -28 55 -75 104 -146 148 -215 236
-215 270 0 5 18 10 40 10 51 0 109 -50 150 -129 21 -40 29 -50 30 -33 0 12 5
22 11 22 25 0 81 -35 114 -71 19 -22 35 -34 35 -28 0 15 -93 105 -152 146 -44
30 -92 95 -81 107 14 13 80 5 113 -15 19 -11 52 -39 73 -62 l38 -42 -17 37
c-21 45 -16 52 21 38 51 -20 36 -3 -17 19 -29 12 -71 31 -93 44 -28 16 -63 23
-119 27 -71 5 -81 8 -99 32 -23 31 -37 138 -18 138 6 0 27 -23 47 -50 40 -56
52 -64 29 -20 -23 45 -20 53 23 47 36 -5 36 -5 -14 18 -54 25 -124 96 -124
127 0 29 42 22 96 -15 34 -23 69 -63 114 -131 57 -84 107 -136 132 -136 4 0
-13 21 -37 46 -44 45 -63 83 -51 102 6 10 60 1 110 -18 14 -5 26 -7 26 -4 0 3
-38 22 -85 44 -58 27 -98 53 -130 86 -25 26 -45 51 -45 56 0 21 52 4 104 -33
32 -23 88 -52 124 -65 37 -14 81 -34 97 -46 l30 -21 -20 22 c-11 13 -55 41
-98 62 -43 22 -75 44 -72 49 3 6 36 10 73 11 78 1 51 16 -32 18 -33 1 -74 13
-129 37 -74 34 -90 37 -208 44 -200 11 -244 44 -286 215 -15 62 -17 137 -18
648 0 458 3 581 13 589 8 7 38 8 90 3 42 -5 95 -8 117 -7 22 0 105 3 185 5
171 4 219 19 244 72 22 46 23 401 2 431 -14 18 -29 19 -315 19 -275 0 -302 2
-318 18 -16 16 -18 43 -20 280 -1 151 -6 273 -12 289 -8 21 -20 28 -61 37 -64
14 -101 13 -270 -8z m254 -57 c23 -9 23 -240 0 -308 -9 -26 -19 -44 -23 -41
-3 4 -6 75 -6 158 l0 152 -55 7 c-61 9 -124 2 -115 -12 3 -5 -20 -10 -52 -12
l-58 -3 -3 -112 c-2 -73 1 -113 8 -113 6 0 10 24 10 56 0 49 2 55 15 44 13
-11 15 -6 15 39 0 102 29 38 31 -69 1 -60 17 -24 18 40 2 60 10 90 27 90 24 0
27 -21 25 -171 0 -93 3 -149 9 -149 6 0 10 23 10 52 0 32 6 58 15 68 12 13 13
23 5 44 -11 31 -2 166 11 166 5 0 9 -14 9 -31 0 -17 4 -28 10 -24 6 3 10 17
10 31 0 13 4 24 9 24 15 0 22 -62 22 -210 0 -78 3 -148 6 -156 9 -23 27 -16
48 19 l20 32 3 -117 3 -116 72 -7 c40 -4 119 -2 176 3 103 9 135 7 157 -10 7
-5 30 -4 55 1 53 13 169 14 187 3 9 -7 12 -47 10 -168 l-3 -159 -89 -3 c-53
-2 -93 1 -100 8 -7 7 1 10 26 10 19 0 56 3 82 6 64 9 70 28 59 163 -9 115 -18
130 -69 116 l-29 -8 30 -6 c17 -4 30 -13 30 -21 0 -11 -17 -17 -64 -22 -86
-10 -104 -28 -28 -28 31 0 57 -4 57 -9 0 -5 -12 -23 -26 -40 -24 -28 -31 -31
-87 -31 -34 0 -72 -3 -84 -6 -41 -11 -24 -24 30 -24 33 0 47 -3 38 -9 -9 -6
-1 -11 30 -17 l44 -7 -45 -14 c-29 -9 -70 -12 -115 -9 -60 5 -65 4 -37 -6 17
-6 32 -17 32 -24 0 -23 -69 -33 -184 -27 -70 3 -121 1 -139 -6 l-28 -11 3
-397 c3 -356 1 -406 -15 -478 -25 -107 -42 -123 -33 -30 4 39 7 92 6 118 0 26
4 111 10 189 11 142 5 264 -11 223 -4 -11 -8 -39 -8 -62 -1 -24 -5 -43 -11
-43 -18 0 -31 40 -39 118 l-8 77 -2 -83 c-1 -55 4 -95 14 -120 29 -69 36 -123
29 -236 -7 -111 -20 -123 -25 -21 l-2 50 -6 -40 c-8 -55 -21 -23 -22 58 -1 60
-2 60 -10 22 -4 -22 -9 -137 -10 -255 -1 -118 -5 -228 -9 -245 -6 -22 -8 -10
-9 46 0 42 -4 98 -8 125 l-7 49 -12 -60 -12 -60 -1 94 c-1 51 5 118 13 150 8
31 17 119 20 196 5 138 5 139 -9 75 -7 -36 -14 -99 -14 -141 -1 -46 -6 -82
-15 -94 -12 -16 -14 -10 -18 54 -3 40 -11 78 -17 84 -7 7 -11 63 -12 156 0 81
-4 166 -8 191 -6 40 -8 34 -14 -55 -15 -195 -24 -177 -28 55 -3 124 -2 227 3
228 4 2 8 16 8 31 0 15 5 32 12 39 9 9 8 12 -5 12 -28 0 -20 26 23 75 58 67
54 69 -24 13 -52 -38 -129 -39 -201 -3 -63 31 -92 32 -42 2 21 -13 35 -26 31
-30 -9 -9 -159 -7 -234 2 l-55 7 73 7 c40 5 70 12 67 17 -3 4 -23 6 -45 3 -37
-5 -159 27 -184 49 -6 4 21 8 60 9 l69 1 -55 17 c-30 10 -58 13 -61 9 -3 -5
-28 -8 -55 -6 -42 3 -49 6 -52 26 -4 26 -6 26 48 7 23 -8 44 -15 45 -15 2 0
-2 11 -8 25 -8 15 -20 25 -34 25 -35 0 -53 11 -53 31 0 15 7 19 32 19 23 0 29
3 21 11 -6 6 -26 9 -44 7 l-34 -3 -5 -65 c-6 -64 -6 -64 -19 -35 -15 35 -20
110 -8 122 22 21 384 23 371 2 -3 -5 -17 -9 -32 -9 -15 0 -34 -5 -42 -10 -10
-7 10 -10 65 -10 44 0 98 -5 120 -10 23 -5 80 -11 127 -13 69 -4 95 -10 125
-28 l38 -23 -21 29 c-18 25 -21 46 -23 133 0 57 -4 109 -8 115 -9 13 -21 -62
-22 -135 -1 -59 -18 -70 -104 -66 -67 4 -61 11 18 24 l50 9 3 68 c2 37 -1 82
-6 100 -5 19 -5 44 1 62 5 17 8 106 8 199 -1 125 2 172 12 178 6 4 35 8 62 9
28 0 70 4 95 8 56 11 153 13 174 5z m626 -784 c0 -5 -9 -10 -21 -10 -11 0 -17
5 -14 10 3 6 13 10 21 10 8 0 14 -4 14 -10z m-1616 -56 c3 -9 6 -31 6 -49 0
-19 4 -36 9 -39 5 -4 44 -9 85 -13 115 -9 103 -24 -16 -21 l-103 3 -3 68 c-3
63 8 88 22 51z m1609 9 c-7 -2 -19 -2 -25 0 -7 3 -2 5 12 5 14 0 19 -2 13 -5z
m-1434 -39 c2 -2 -20 -4 -50 -3 -41 1 -48 3 -29 9 22 7 68 3 79 -6z m495 -80
c12 -30 6 -272 -6 -301 -11 -24 -14 -8 -18 127 l-5 155 -140 2 c-253 5 -213
27 56 31 89 2 108 -1 113 -14z m-384 -64 c19 -5 44 -12 55 -14 11 -3 -18 -2
-65 2 -47 4 -127 6 -177 5 -71 -1 -93 1 -93 11 0 10 27 12 123 9 67 -2 138 -8
157 -13z m1358 5 c-4 -12 -101 -9 -143 4 -23 8 -10 9 58 8 52 -1 86 -6 85 -12z
m-323 -5 c4 -6 -13 -10 -44 -10 -28 0 -51 5 -51 10 0 6 20 10 44 10 25 0 48
-4 51 -10z m-648 -539 c3 -54 2 -129 -3 -167 l-8 -69 -7 95 c-11 158 -10 278
2 257 6 -10 13 -63 16 -116z m20 -373 c-2 -29 -3 -8 -3 47 0 55 1 79 3 53 2
-26 2 -71 0 -100z m200 45 c-3 -10 -5 -4 -5 12 0 17 2 24 5 18 2 -7 2 -21 0
-30z m-160 -210 c-3 -10 -5 -2 -5 17 0 19 2 27 5 18 2 -10 2 -26 0 -35z m282
-95 l-2 -143 -9 120 c-8 110 -5 165 7 165 3 0 4 -64 4 -142z m-172 -195 c-2
-16 -4 -5 -4 22 0 28 2 40 4 28 2 -13 2 -35 0 -50z m280 -304 c29 -21 46 -42
52 -67 6 -20 8 -38 6 -41 -8 -8 -51 16 -90 51 -47 41 -75 99 -75 158 l0 45 33
-57 c18 -33 50 -71 74 -89z m-432 65 c-4 -31 -13 -78 -21 -104 -27 -90 -112
-190 -176 -205 -23 -6 -27 -3 -33 24 -8 39 16 92 54 114 31 18 41 14 42 -17 0
-14 4 -9 11 13 5 19 24 52 42 73 19 22 39 62 49 98 22 78 42 81 32 4z m528 6
c125 -25 144 -46 171 -189 8 -46 23 -95 32 -109 l16 -25 -37 6 c-21 3 -54 18
-74 32 -129 93 -125 90 -133 135 -4 24 -6 46 -4 48 10 10 54 -32 81 -77 54
-90 48 -45 -6 52 -14 25 -6 31 23 17 l23 -11 -22 19 c-13 11 -48 28 -79 38
-30 9 -68 29 -85 45 -32 30 -39 55 -11 44 9 -4 57 -15 105 -25z m-1040 -16 c6
-7 -47 -55 -80 -73 -29 -15 -106 -15 -101 1 13 39 156 96 181 72z m787 -208
c74 -83 109 -141 110 -184 l0 -23 -28 20 c-16 11 -50 25 -76 32 -26 6 -61 23
-77 36 -26 22 -29 31 -29 83 0 63 9 120 19 119 3 0 40 -38 81 -83z m-526 17
c-5 -16 -8 -47 -7 -70 l2 -43 -49 0 c-49 0 -50 1 -50 31 0 41 15 66 53 89 46
29 61 26 51 -7z m312 -304 c-8 -30 -26 -70 -38 -89 l-23 -35 -3 30 c-1 17 -10
62 -18 100 -21 95 -12 147 34 203 l37 45 13 -100 c13 -89 12 -106 -2 -154z
m459 186 c78 -45 125 -132 125 -231 0 -65 -8 -67 -76 -21 -64 42 -90 84 -98
154 -4 32 -10 73 -13 91 -7 39 5 41 62 7z m-605 -110 c0 -63 -34 -108 -133
-174 -27 -18 -51 -31 -54 -28 -10 11 9 66 40 113 l31 49 7 -40 6 -40 8 45 c5
30 19 56 41 78 41 41 54 41 54 -3z"/>
<path d="M1237 3663 c-9 -43 -21 -55 -30 -30 -3 7 -6 5 -6 -5 -1 -9 4 -29 11
-43 10 -22 8 -30 -10 -55 -30 -40 -28 -43 14 -18 30 18 46 20 110 15 44 -3 72
-2 69 4 -4 5 21 9 56 9 107 0 54 14 -74 20 l-122 5 -5 70 c-5 69 -5 70 -13 28z"/>
<path d="M580 3490 c20 -13 110 -13 110 0 0 6 -27 10 -62 10 -45 0 -59 -3 -48
-10z"/>
<path d="M1583 3483 c9 -2 23 -2 30 0 6 3 -1 5 -18 5 -16 0 -22 -2 -12 -5z"/>
<path d="M1400 3370 c0 -5 6 -10 14 -10 8 0 18 5 21 10 3 6 -3 10 -14 10 -12
0 -21 -4 -21 -10z"/>
<path d="M1199 3327 c23 -37 22 -62 -1 -39 -23 23 -31 12 -9 -11 18 -20 23
-44 33 -140 6 -64 15 -114 20 -111 4 3 8 58 8 124 0 98 3 119 16 124 9 3 52 6
97 7 91 0 157 17 75 18 -59 1 -85 10 -66 23 9 7 4 8 -15 4 -92 -21 -112 -19
-147 10 l-34 29 23 -38z"/>
<path d="M1080 3010 c0 -59 3 -80 10 -70 5 8 10 40 10 70 0 30 -5 62 -10 70
-7 10 -10 -11 -10 -70z"/>
</g>
</svg>
