<svg width="16" height="16" viewBox="0 0 16 16" fill="none" xmlns="http://www.w3.org/2000/svg">
<path d="M2.66667 13V3.00004C2.66667 2.55801 2.84227 2.13409 3.15483 1.82153C3.46739 1.50897 3.89131 1.33337 4.33334 1.33337H12.6667C12.8435 1.33337 13.0131 1.40361 13.1381 1.52864C13.2631 1.65366 13.3333 1.82323 13.3333 2.00004V14C13.3333 14.1769 13.2631 14.3464 13.1381 14.4714C13.0131 14.5965 12.8435 14.6667 12.6667 14.6667H4.33334C3.89131 14.6667 3.46739 14.4911 3.15483 14.1786C2.84227 13.866 2.66667 13.4421 2.66667 13ZM2.66667 13C2.66667 12.558 2.84227 12.1341 3.15483 11.8215C3.46739 11.509 3.89131 11.3334 4.33334 11.3334H13.3333" stroke="#C4A265" stroke-width="2" stroke-linecap="round" stroke-linejoin="round"/>
</svg>
