<svg width="36" height="36" viewBox="0 0 36 36" fill="none" xmlns="http://www.w3.org/2000/svg">
<path d="M18 23.8333V26.3333" stroke="#5C4033" stroke-opacity="0.6" stroke-width="2" stroke-linecap="round" stroke-linejoin="round"/>
<path d="M23.8333 16.3333V17.9999C23.8333 19.547 23.2187 21.0307 22.1248 22.1247C21.0308 23.2187 19.5471 23.8333 18 23.8333C16.4529 23.8333 14.9692 23.2187 13.8752 22.1247C12.7812 21.0307 12.1667 19.547 12.1667 17.9999V16.3333" stroke="#5C4033" stroke-opacity="0.6" stroke-width="2" stroke-linecap="round" stroke-linejoin="round"/>
<path d="M20.5 12.1667C20.5 10.786 19.3807 9.66675 18 9.66675C16.6193 9.66675 15.5 10.786 15.5 12.1667V18.0001C15.5 19.3808 16.6193 20.5001 18 20.5001C19.3807 20.5001 20.5 19.3808 20.5 18.0001V12.1667Z" stroke="#5C4033" stroke-opacity="0.6" stroke-width="2" stroke-linecap="round" stroke-linejoin="round"/>
</svg>
