<svg width="24" height="24" viewBox="0 0 24 24" fill="none" xmlns="http://www.w3.org/2000/svg">
  <path fill-rule="evenodd" clip-rule="evenodd"
    d="M16 4.531H13C11.528 4.531 10.629 4.536 9.979 4.623C9.678 4.663 9.513 4.713 9.425 4.749C9.353 4.779 9.33 4.799 9.315 4.815C9.3 4.831 9.279 4.853 9.249 4.925C9.18439 5.10379 9.14207 5.28986 9.123 5.479C9.036 6.129 9.031 7.029 9.031 8.5V11.5C9.031 12.972 9.036 13.871 9.123 14.521C9.163 14.822 9.213 14.987 9.249 15.075C9.279 15.147 9.299 15.17 9.315 15.185C9.331 15.2 9.353 15.221 9.425 15.251C9.513 15.287 9.678 15.337 9.979 15.377C10.629 15.464 11.529 15.469 13 15.469H16C17.472 15.469 18.371 15.464 19.021 15.377C19.322 15.337 19.487 15.287 19.575 15.251C19.647 15.221 19.67 15.201 19.685 15.185C19.7 15.169 19.721 15.147 19.751 15.075C19.787 14.987 19.836 14.822 19.877 14.521C19.964 13.871 19.969 12.971 19.969 11.5V8.5C19.969 7.028 19.964 6.129 19.877 5.479C19.8579 5.28986 19.8156 5.10379 19.751 4.925C19.721 4.853 19.701 4.83 19.685 4.815C19.669 4.8 19.647 4.779 19.575 4.749C19.3962 4.68439 19.2101 4.64207 19.021 4.623C18.371 4.536 17.471 4.531 16 4.531ZM7.879 3.38C7 4.257 7 5.672 7 8.5V11.5C7 14.328 7 15.743 7.879 16.621C8.758 17.499 10.172 17.5 13 17.5H16C18.828 17.5 20.243 17.5 21.121 16.621C21.999 15.742 22 14.328 22 11.5V8.5C22 5.672 22 4.257 21.121 3.379C20.242 2.501 18.828 2.5 16 2.5H13C10.172 2.5 8.757 2.5 7.879 3.379V3.38Z"
    fill="#C4A265" />
  <path
    d="M5 5.5V15.5C5 16.5609 5.42143 17.5783 6.17157 18.3284C6.92172 19.0786 7.93913 19.5 9 19.5H19C19 20.5 18.113 21.5 17 21.5H9C7.4087 21.5 5.88258 20.8679 4.75736 19.7426C3.63214 18.6174 3 17.0913 3 15.5V7.5C3 6.5 4 5.5 5 5.5Z"
    fill="#C4A265" />
</svg>