<svg width="24" height="24" viewBox="0 0 24 24" fill="none" xmlns="http://www.w3.org/2000/svg">
<g clip-path="url(#clip0_72_101)">
<path d="M5.37468 12.232C5.31912 12.0823 5.31912 11.9177 5.37468 11.768C5.91581 10.4559 6.83435 9.33402 8.01386 8.5446C9.19336 7.75517 10.5807 7.33374 12 7.33374C13.4193 7.33374 14.8067 7.75517 15.9862 8.5446C17.1657 9.33402 18.0842 10.4559 18.6253 11.768C18.6809 11.9177 18.6809 12.0823 18.6253 12.232C18.0842 13.5441 17.1657 14.666 15.9862 15.4554C14.8067 16.2448 13.4193 16.6663 12 16.6663C10.5807 16.6663 9.19336 16.2448 8.01386 15.4554C6.83435 14.666 5.91581 13.5441 5.37468 12.232Z" stroke="#8A8A8A" stroke-width="2" stroke-linecap="round" stroke-linejoin="round"/>
<path d="M12 14C13.1046 14 14 13.1046 14 12C14 10.8954 13.1046 10 12 10C10.8954 10 10 10.8954 10 12C10 13.1046 10.8954 14 12 14Z" stroke="#8A8A8A" stroke-width="2" stroke-linecap="round" stroke-linejoin="round"/>
</g>
<defs>
<clipPath id="clip0_72_101">
<rect width="16" height="16" fill="white" transform="translate(4 4)"/>
</clipPath>
</defs>
</svg>
