<?xml version="1.0" standalone="no"?>
<!DOCTYPE svg PUBLIC "-//W3C//DTD SVG 20010904//EN"
 "http://www.w3.org/TR/2001/REC-SVG-20010904/DTD/svg10.dtd">
<svg version="1.0" xmlns="http://www.w3.org/2000/svg"
 width="800.000000pt" height="560.000000pt" viewBox="0 0 800.000000 560.000000"
 preserveAspectRatio="xMidYMid meet">

<g transform="translate(0.000000,560.000000) scale(0.100000,-0.100000)"
fill="#000000" stroke="none">
<path d="M3759 5186 c-110 -29 -209 -120 -266 -242 -19 -42 -50 -136 -69 -210
-19 -73 -52 -171 -74 -216 -42 -88 -70 -182 -70 -233 0 -16 7 -55 15 -85 22
-82 19 -113 -20 -190 -37 -73 -44 -125 -25 -176 10 -25 7 -31 -41 -75 -29 -26
-60 -60 -70 -76 -20 -30 -26 -112 -9 -129 7 -7 -25 -28 -95 -63 -175 -89 -227
-158 -364 -486 -79 -188 -149 -319 -221 -410 -61 -78 -70 -96 -91 -178 -23
-90 -62 -133 -105 -117 -15 6 -63 15 -105 21 -42 5 -103 18 -135 29 -99 34
-144 24 -144 -32 0 -36 54 -90 114 -113 l45 -17 -129 -82 c-150 -94 -214 -145
-236 -187 -14 -27 -14 -33 0 -54 12 -19 13 -29 3 -54 -16 -43 0 -82 38 -94 17
-5 40 -19 53 -31 17 -15 37 -21 70 -21 26 0 53 -4 60 -8 38 -25 75 -26 162 -3
l88 23 7 -106 c24 -395 84 -637 186 -743 54 -57 84 -61 158 -23 64 32 96 71
256 310 74 110 143 211 153 224 l19 23 7 -56 c3 -31 17 -86 31 -122 32 -85 31
-106 -5 -181 -40 -81 -44 -109 -26 -160 13 -38 13 -52 1 -125 -17 -97 -19
-178 -5 -178 15 0 26 35 45 139 16 86 16 140 0 203 -5 21 2 46 30 103 33 65
37 82 32 123 -3 26 -16 70 -28 97 -16 35 -24 76 -27 138 -4 83 -3 91 27 152
18 36 37 65 42 65 5 0 4 -9 -3 -20 -23 -36 1 -33 54 8 69 53 315 302 414 417
182 214 463 613 601 855 81 140 174 327 240 480 l54 125 -6 -118 c-9 -198 -34
-408 -57 -472 -11 -33 -65 -152 -120 -264 -54 -112 -97 -206 -95 -207 4 -5 95
149 155 261 l53 100 -6 -50 c-22 -177 -113 -621 -185 -903 -66 -259 -206 -524
-449 -853 -39 -53 -71 -100 -71 -104 0 -28 246 292 332 434 32 52 58 92 58 88
0 -4 -27 -81 -60 -171 -64 -176 -158 -400 -235 -559 -78 -162 -44 -119 47 60
200 391 338 768 457 1249 119 480 220 1123 221 1404 0 105 9 137 37 145 14 3
35 16 48 29 23 23 27 23 67 12 40 -12 43 -16 50 -57 3 -24 7 -70 7 -101 1 -32
6 -58 11 -58 6 0 10 43 10 110 0 89 3 112 15 116 21 8 146 -27 152 -42 6 -16
-30 -427 -62 -704 -60 -509 -156 -1020 -306 -1614 -33 -131 -63 -245 -65 -255
-5 -14 -4 -14 4 -1 12 17 85 265 137 460 115 432 214 948 276 1445 7 55 14 93
16 85 1 -8 14 -175 28 -370 61 -838 166 -1901 197 -1979 9 -22 11 -23 17 -8 8
23 -3 183 -38 535 -16 158 -28 288 -27 289 2 2 32 -41 69 -95 133 -196 316
-396 399 -435 99 -47 179 0 223 130 45 134 80 479 73 731 -2 72 -2 132 0 132
2 0 48 -11 103 -25 138 -35 205 -41 252 -22 20 9 40 23 43 30 3 9 13 13 24 10
31 -8 90 17 102 42 6 13 24 29 40 34 36 13 50 46 33 86 -8 21 -9 37 -2 53 26
57 -60 121 -271 204 l-132 52 55 29 c59 30 95 74 95 118 0 57 -37 62 -142 20
-40 -16 -104 -34 -143 -40 -82 -14 -116 -26 -167 -59 l-38 -25 -65 43 c-87 57
-111 86 -118 148 -7 63 -25 99 -89 180 -63 79 -82 118 -153 322 -95 270 -136
338 -248 408 -26 16 -58 45 -70 63 -17 25 -39 40 -81 55 -57 20 -58 21 -61 62
-4 46 -31 91 -75 122 -28 20 -29 23 -23 85 5 61 4 66 -36 140 -50 91 -53 126
-21 234 32 102 24 158 -39 316 -29 71 -59 160 -67 199 -25 124 -65 249 -96
309 -74 138 -238 215 -368 173 -46 -15 -55 -15 -102 -1 -61 18 -97 18 -159 1z
m307 -275 c48 -4 88 -12 98 -20 10 -8 31 -42 48 -75 17 -34 41 -73 53 -88 13
-15 25 -47 29 -77 4 -28 10 -59 13 -69 4 -11 -2 -9 -20 9 -31 30 -65 39 -147
39 -41 0 -64 -5 -80 -18 -40 -33 -18 -44 74 -36 65 5 94 3 134 -10 46 -16 52
-21 58 -53 11 -59 -4 -206 -26 -257 -11 -26 -27 -74 -35 -107 -9 -33 -20 -71
-26 -86 l-10 -26 -27 42 c-29 45 -84 78 -148 88 -33 5 -35 7 -19 19 32 23 12
34 -30 15 -38 -17 -42 -17 -80 0 -42 19 -64 7 -31 -16 14 -11 13 -13 -14 -18
-70 -14 -130 -49 -154 -89 -28 -47 -41 -38 -56 40 -5 29 -25 89 -44 135 -42
102 -56 205 -33 258 12 30 23 38 69 53 38 11 80 16 134 14 65 -2 79 0 82 13
11 54 -186 51 -247 -4 -23 -21 -23 -21 -18 -2 4 11 11 42 17 68 6 26 21 65 35
85 13 20 27 51 31 67 19 84 52 105 163 105 36 0 73 5 81 10 8 5 22 7 30 3 8
-4 51 -9 96 -12z m338 -570 c-8 -42 -29 -87 -45 -97 -8 -5 -10 0 -6 17 3 13 9
55 13 93 l7 70 19 -23 c14 -18 17 -32 12 -60z m-847 -38 c10 -89 2 -96 -28
-29 -22 48 -24 79 -7 106 19 29 26 13 35 -77z m420 -194 c5 -5 32 -14 59 -18
l49 -8 -67 -7 c-37 -5 -89 -5 -115 0 l-48 7 38 7 c21 4 43 12 50 19 14 14 20
14 34 0z m-17 -54 c63 0 127 4 142 8 25 8 27 6 38 -31 10 -33 10 -45 -5 -75
-16 -34 -68 -77 -94 -77 -6 0 -11 12 -11 26 0 14 -4 34 -10 44 -7 13 -6 21 5
30 26 22 17 25 -65 25 -81 0 -96 -6 -61 -25 19 -9 19 -12 3 -52 -9 -24 -17
-44 -18 -46 -7 -10 -68 34 -84 61 -23 37 -25 65 -8 102 9 20 16 24 32 18 12
-5 73 -8 136 -8z m-192 -299 c75 -79 134 -97 171 -49 23 28 23 28 40 -4 28
-55 130 -8 216 99 l40 50 7 -28 c4 -16 10 -46 13 -66 3 -21 16 -50 29 -65 20
-24 23 -36 19 -77 -6 -46 -9 -50 -66 -87 -115 -75 -258 -98 -392 -64 -62 16
-183 72 -223 103 l-22 17 35 82 c27 61 35 95 35 140 l1 58 30 -35 c17 -19 47
-53 67 -74z m20 -312 c74 -25 102 -29 192 -28 117 1 169 16 274 79 l58 35 28
-29 27 -30 -47 -113 c-173 -414 -433 -840 -764 -1253 -140 -175 -189 -228
-197 -213 -15 27 -39 196 -49 353 -7 88 -13 162 -16 164 -2 2 -4 -72 -4 -165
0 -146 17 -326 35 -385 6 -17 -69 -108 -80 -98 -9 9 -45 187 -45 224 0 17 -5
37 -11 45 -14 19 -5 -170 12 -253 l12 -58 -59 -60 c-73 -74 -77 -70 -85 106
-3 77 -12 156 -23 193 -17 61 -17 71 9 385 15 177 28 410 30 517 4 193 4 194
-10 110 -7 -47 -17 -136 -21 -199 -4 -63 -10 -107 -15 -99 -4 8 -15 54 -23
103 -17 97 -44 200 -45 175 0 -8 6 -69 14 -135 41 -324 45 -384 35 -483 -13
-125 -21 -171 -27 -152 -37 113 -127 300 -145 300 -4 0 11 -37 32 -82 46 -100
70 -181 111 -370 41 -188 42 -198 31 -300 -7 -60 -19 -106 -39 -150 -29 -61
-424 -661 -443 -673 -13 -8 -13 -8 4 67 22 93 36 315 36 563 0 445 -35 597
-147 647 -45 20 -105 76 -96 91 2 4 27 19 54 33 66 33 136 41 176 21 91 -48
172 -249 238 -592 l23 -120 1 69 c2 159 -50 391 -119 533 -74 151 -164 197
-293 147 -45 -17 1 110 70 198 79 100 155 246 263 503 110 263 186 340 434
439 49 20 101 36 116 36 24 0 29 -5 34 -33 15 -80 118 -121 202 -81 59 28 86
90 44 101 -20 5 -25 15 -15 25 3 3 35 -14 71 -37 36 -24 104 -56 152 -71z
m1159 -69 c88 -59 122 -117 203 -350 71 -201 99 -261 163 -347 66 -89 87 -128
87 -165 0 -26 -3 -28 -39 -29 -21 -1 -56 -10 -77 -20 -42 -20 -173 -139 -163
-148 3 -3 35 17 70 46 118 94 189 111 240 57 16 -17 29 -34 29 -38 0 -4 29
-25 65 -46 36 -21 65 -41 65 -46 0 -12 -35 -29 -58 -29 -49 0 -130 -107 -158
-207 -22 -79 -31 -533 -15 -728 13 -158 34 -294 56 -354 8 -23 10 -41 6 -41
-5 0 -42 35 -82 78 -121 126 -251 310 -311 438 -29 62 -32 82 -54 317 -12 139
-32 367 -43 508 l-21 255 25 170 c26 175 43 391 25 324 -5 -19 -19 -95 -31
-169 -15 -89 -25 -128 -30 -115 -4 10 -15 113 -23 227 -13 171 -14 229 -4 327
6 66 14 120 17 120 4 0 30 -16 58 -35z m1111 -992 c-13 -14 -48 -36 -78 -49
-75 -34 -116 -74 -75 -74 8 0 77 -23 152 -51 188 -69 283 -125 283 -164 0 -22
-16 -19 -108 20 -46 19 -107 42 -137 51 -35 10 -55 21 -55 30 0 23 -17 8 -22
-20 -4 -20 0 -25 23 -30 57 -11 291 -110 300 -127 11 -21 2 -49 -16 -49 -7 0
-32 9 -56 19 -24 11 -93 34 -154 52 -60 18 -111 36 -113 41 -6 15 -19 8 -30
-17 -16 -35 -15 -36 11 -30 27 7 253 -67 276 -90 15 -15 15 -17 -3 -31 -27
-19 -58 -18 -98 5 -18 10 -75 27 -125 37 -51 10 -93 21 -93 26 0 19 -21 6 -35
-23 -16 -30 -16 -31 5 -24 21 7 190 -20 220 -35 27 -13 16 -35 -22 -44 -29 -7
-68 -3 -170 18 -259 53 -314 71 -370 124 -31 29 -46 25 -28 -8 6 -12 9 -24 6
-27 -5 -6 -137 -63 -143 -63 -8 0 -2 115 8 162 20 97 93 208 135 208 8 0 14
-9 14 -20 0 -32 13 -23 43 30 40 73 120 123 229 143 46 9 119 29 163 45 77 29
80 29 83 10 2 -11 -7 -31 -20 -45z m-4068 -64 c41 -11 112 -27 157 -34 45 -8
99 -23 120 -34 47 -23 103 -83 122 -129 17 -41 36 -42 27 -2 -5 28 -4 30 13
20 52 -27 86 -109 97 -236 l7 -74 -39 14 c-31 10 -38 18 -36 35 4 28 -9 27
-39 -5 -34 -36 -154 -109 -219 -133 -171 -62 -299 -84 -287 -48 6 19 164 89
200 89 19 -1 23 18 6 35 -8 8 -23 4 -54 -13 -23 -14 -65 -31 -92 -39 -28 -8
-62 -24 -76 -36 -51 -39 -136 -33 -111 8 14 23 245 142 261 136 19 -7 16 12
-7 38 -17 21 -19 22 -20 6 0 -13 -32 -33 -117 -74 -65 -31 -129 -64 -142 -74
-13 -11 -32 -19 -42 -19 -25 0 -25 44 -1 68 22 22 167 110 233 142 48 23 55
44 23 71 -11 9 -14 8 -14 -7 -1 -18 -22 -32 -212 -138 -29 -16 -40 -18 -49 -9
-28 28 53 98 261 224 97 59 115 67 137 58 14 -5 28 -7 32 -4 10 11 -60 62
-111 80 -60 21 -108 60 -108 86 0 10 1 19 3 19 1 0 36 -9 77 -21z m3726 -487
c21 -13 26 -114 15 -312 -24 -415 -57 -588 -125 -642 -67 -55 -131 21 -171
205 -5 26 -3 26 38 -17 49 -52 63 -55 101 -25 38 30 35 56 -3 28 -37 -27 -61
-16 -33 15 79 86 139 327 149 599 3 86 9 157 12 157 3 0 11 -4 17 -8z m-3487
-267 c20 -247 60 -424 113 -507 16 -27 34 -48 39 -48 13 0 11 11 -6 30 -34 37
-72 196 -89 370 l-5 55 28 -85 c64 -196 126 -280 199 -271 15 2 15 -9 1 -85
-14 -79 -38 -155 -57 -176 -24 -29 -66 -22 -97 14 -89 105 -144 345 -170 740
-6 88 -5 97 12 100 10 2 19 4 19 4 1 -1 7 -64 13 -141z"/>
<path d="M3693 4509 c-24 -12 -43 -25 -43 -30 0 -12 17 -11 41 1 15 8 19 7 19
-4 0 -21 28 -46 51 -46 11 0 27 12 37 29 15 27 17 28 39 14 29 -19 31 -1 2 25
-18 18 -61 32 -93 32 -6 0 -30 -9 -53 -21z"/>
<path d="M4105 4514 c-16 -8 -33 -21 -37 -27 -15 -23 -8 -29 17 -13 31 21 35
20 35 -4 0 -10 10 -24 21 -31 29 -15 69 3 69 32 0 16 4 19 18 14 9 -4 26 -10
37 -13 18 -5 19 -4 5 13 -35 42 -113 56 -165 29z"/>
<path d="M5233 2358 c-51 -45 -67 -64 -107 -128 -67 -107 -109 -291 -88 -380
8 -33 9 -30 16 35 18 175 91 342 204 467 42 47 26 50 -25 6z"/>
<path d="M5824 2169 c-36 -38 -94 -69 -131 -69 -15 0 -35 -4 -43 -10 -11 -7
-9 -11 12 -19 15 -6 45 -20 68 -31 46 -23 55 -9 10 18 l-29 18 36 13 c36 13
123 86 123 102 0 17 -16 9 -46 -22z"/>
<path d="M5839 2062 c-42 -54 -63 -92 -52 -91 10 0 91 102 99 124 12 30 -11
14 -47 -33z"/>
<path d="M2129 2082 c11 -16 42 -40 68 -53 26 -13 50 -25 52 -26 2 -1 -4 -14
-13 -28 -22 -33 -10 -31 38 5 22 17 46 30 53 30 8 0 12 4 9 9 -4 5 -26 9 -50
9 -48 0 -72 10 -127 53 -47 37 -56 37 -30 1z"/>
<path d="M2110 1993 c0 -11 106 -123 115 -123 12 0 -25 56 -52 81 -45 40 -63
52 -63 42z"/>
<path d="M3934 2024 c-214 -334 -396 -567 -599 -769 -77 -77 -164 -158 -192
-180 -47 -36 -82 -77 -50 -59 126 74 451 392 588 577 136 183 372 568 357 582
-2 2 -49 -65 -104 -151z"/>
</g>
</svg>
