<?xml version="1.0" standalone="no"?>
<!DOCTYPE svg PUBLIC "-//W3C//DTD SVG 20010904//EN"
 "http://www.w3.org/TR/2001/REC-SVG-20010904/DTD/svg10.dtd">
<svg version="1.0" xmlns="http://www.w3.org/2000/svg"
 width="736.000000pt" height="736.000000pt" viewBox="0 0 736.000000 736.000000"
 preserveAspectRatio="xMidYMid meet">

<g transform="translate(0.000000,736.000000) scale(0.100000,-0.100000)"
fill="#000000" stroke="none">
<path d="M3205 5965 c-298 -46 -567 -175 -747 -356 l-36 -37 -7 92 c-14 206
-27 265 -58 266 -15 0 -54 -113 -111 -325 -20 -78 -22 -80 -53 -83 -26 -3 -43
6 -96 50 -35 29 -81 67 -102 83 -21 17 -67 54 -103 83 -66 54 -89 63 -98 37
-6 -14 14 -51 135 -259 28 -49 50 -91 47 -93 -7 -8 -142 -21 -276 -28 -149 -7
-170 -12 -170 -35 0 -20 44 -36 276 -100 l81 -23 14 -63 15 -63 -111 -79
c-120 -87 -150 -115 -140 -131 10 -18 53 -12 195 25 144 38 200 50 200 41 0
-3 -14 -26 -30 -51 -17 -24 -38 -62 -46 -83 -9 -21 -46 -68 -83 -104 -82 -81
-134 -158 -174 -258 -29 -72 -31 -83 -31 -221 -1 -128 2 -152 22 -201 l23 -57
-55 -76 c-91 -127 -132 -272 -122 -429 8 -115 20 -165 66 -262 60 -126 164
-229 246 -242 20 -3 39 -14 46 -26 5 -11 28 -40 51 -64 l40 -43 -21 -78 c-22
-80 -57 -234 -66 -287 -29 -180 -37 -281 -38 -475 0 -188 4 -254 28 -394 18
-109 35 -142 79 -163 28 -13 32 -19 24 -34 -19 -36 -11 -89 19 -119 32 -31 70
-44 182 -60 102 -15 172 -5 253 36 l67 33 118 -13 c282 -32 760 -28 1062 9 68
9 126 18 130 20 4 2 17 -10 29 -26 46 -62 184 -96 270 -66 25 9 48 14 53 11 4
-3 36 0 70 6 73 14 145 53 161 87 9 20 16 24 41 19 85 -15 115 -17 155 -8 42
10 44 9 73 -23 45 -52 89 -74 157 -81 144 -16 259 69 278 205 l8 54 50 13 c37
9 60 10 90 2 47 -12 135 -4 175 17 32 16 78 68 91 101 4 13 27 32 52 43 145
66 142 300 -5 395 l-29 18 35 34 c49 47 79 133 74 210 l-4 61 67 6 c37 3 80
12 96 20 147 77 136 235 -30 400 -59 59 -271 226 -324 256 -17 9 -17 11 3 33
75 82 80 223 11 325 -24 36 -49 56 -97 81 -60 31 -66 37 -72 74 -17 96 -80
178 -173 226 -42 22 -63 26 -137 27 l-87 0 5 40 c3 22 9 69 12 105 l7 65 43
-64 c23 -36 42 -69 42 -74 0 -4 10 -7 23 -5 28 4 27 14 -6 178 -14 68 -25 125
-24 126 1 1 21 11 44 23 44 22 113 84 113 101 0 15 27 11 130 -19 52 -15 101
-26 108 -23 29 11 5 42 -91 114 -102 76 -102 76 -104 121 -1 25 -9 59 -17 75
-9 17 -16 35 -16 40 0 5 24 28 53 50 28 22 61 48 72 58 11 11 44 39 73 62 52
43 66 77 38 88 -8 3 -93 -18 -189 -46 l-175 -52 -35 28 c-29 22 -40 44 -66
123 -17 53 -31 105 -31 117 0 12 13 39 28 60 15 21 43 65 61 97 49 86 29 111
-49 62 -22 -14 -42 -25 -45 -25 -3 0 -23 -11 -45 -25 -22 -14 -42 -25 -44 -25
-3 0 -18 24 -35 54 -17 30 -52 80 -77 113 -57 73 -208 228 -250 257 -17 11
-58 39 -90 62 -183 127 -407 209 -601 220 -47 2 -92 8 -102 13 -70 38 -325 52
-486 26z m365 -96 c29 -6 69 -18 89 -27 21 -9 75 -16 131 -18 140 -4 316 -59
461 -145 140 -82 312 -233 325 -284 3 -14 11 -25 18 -25 13 0 36 -46 36 -73 0
-14 -34 13 -117 94 -128 124 -214 186 -350 253 -183 90 -371 127 -485 96 -32
-9 -39 -8 -62 13 -63 58 -284 78 -466 42 -118 -23 -115 -24 -118 6 -3 24 2 27
55 42 162 45 349 55 483 26z m-1232 -291 c-10 -6 -8 -8 5 -8 38 0 13 -35 -32
-43 -25 -5 -32 -4 -28 6 3 7 18 69 33 137 l29 123 3 -103 c2 -76 -1 -106 -10
-112z m598 196 c-3 -9 -6 -22 -6 -30 0 -8 -6 -14 -13 -14 -7 0 -50 -18 -94
-39 -71 -34 -82 -37 -88 -23 -8 21 19 42 110 86 79 39 100 44 91 20z m69 -104
c4 -41 8 -91 8 -110 1 -19 6 -38 12 -42 7 -5 6 -14 -3 -29 -8 -11 -9 -18 -4
-15 6 3 13 -1 16 -10 10 -25 7 -34 -8 -28 -10 4 -12 -2 -8 -21 6 -31 -10 -45
-50 -45 -34 0 -33 -12 -8 200 11 91 20 176 20 190 2 46 17 -8 25 -90z m-997
-84 c45 -38 82 -73 82 -76 0 -7 -51 -33 -54 -28 -1 2 -35 48 -76 103 -40 55
-65 93 -54 85 10 -8 56 -46 102 -84z m607 -96 c33 -33 57 -60 53 -60 -3 0 -32
12 -64 27 -62 29 -65 30 -90 32 -13 1 -11 6 8 30 13 17 25 30 28 30 3 1 32
-26 65 -59z m892 -97 c-10 -75 -24 -134 -33 -143 -12 -12 -14 -12 -15 5 0 11
-3 14 -6 8 -6 -16 -13 -16 -36 1 -17 13 -15 21 43 135 33 67 62 121 63 121 2
0 -5 -57 -16 -127z m-1041 57 c27 -6 69 -20 94 -31 40 -18 43 -21 26 -31 -25
-14 -108 -13 -135 1 -12 7 -35 10 -51 7 -16 -2 -30 0 -32 6 -3 7 -17 7 -42 -1
-22 -5 -46 -7 -55 -2 -31 16 -152 -19 -186 -54 -17 -17 -51 -69 -59 -89 -5
-16 -4 -17 9 -6 12 10 15 10 15 -4 0 -9 11 -26 25 -38 23 -20 24 -23 9 -39
-13 -14 -21 -16 -35 -8 -11 5 -19 17 -19 25 0 9 -5 12 -12 8 -6 -4 -8 -3 -4 4
3 6 2 13 -4 17 -6 4 -8 11 -5 16 4 5 1 9 -6 9 -8 0 -6 6 4 18 20 21 22 32 6
32 -5 0 -7 -6 -3 -12 4 -7 4 -10 0 -6 -4 3 -7 8 -5 10 1 2 -3 13 -9 24 -27 50
67 125 186 148 67 14 218 11 288 -4z m1545 -158 c6 -37 13 -80 16 -97 2 -16 8
-46 14 -65 14 -56 12 -66 -10 -46 -11 10 -28 16 -38 15 -48 -8 -54 36 -26 203
18 111 24 109 44 -10z m-2091 60 c0 -4 -7 -15 -14 -24 -11 -16 -20 -17 -72 -8
-106 19 -115 24 -54 30 91 9 140 9 140 2z m885 -4 l40 -11 -40 -14 c-22 -8
-76 -16 -120 -18 -44 -2 -81 -4 -82 -5 -2 -2 -11 -3 -20 -5 -10 -1 -26 -5 -36
-10 -10 -4 -21 -5 -24 -1 -3 3 -12 1 -20 -6 -7 -6 -16 -8 -19 -5 -6 6 18 21
78 49 24 10 40 13 44 7 3 -6 10 -4 17 5 19 23 118 31 182 14z m379 -58 c110
-28 256 -104 256 -132 0 -14 -71 -6 -97 10 -16 10 -23 11 -23 3 0 -7 -10 -3
-22 9 -12 11 -33 20 -47 20 -14 0 -39 7 -55 15 -16 9 -31 13 -33 11 -3 -2 -19
0 -36 5 -18 6 -60 12 -94 14 -34 2 -68 7 -74 11 -7 4 -9 3 -5 -4 4 -7 -5 -10
-26 -10 -18 1 -73 -2 -123 -5 l-90 -7 52 26 c113 55 282 69 417 34z m1736
-110 c-23 -27 -45 -48 -50 -47 -5 1 -48 -38 -95 -87 -76 -79 -91 -90 -119 -89
-19 1 -46 7 -61 15 l-28 15 133 84 c74 46 159 101 189 121 31 20 60 37 64 37
5 1 -10 -21 -33 -49z m-2736 -32 c81 -32 164 -33 311 -3 72 15 165 27 207 27
102 1 155 -26 268 -133 54 -51 109 -92 150 -112 62 -31 70 -32 180 -31 63 0
139 4 168 8 41 6 52 5 52 -5 0 -11 2 -11 10 1 5 8 12 12 15 8 3 -3 -7 -16 -24
-27 -63 -45 -252 -64 -348 -36 -23 7 -44 10 -47 7 -4 -3 -6 0 -6 7 0 7 -4 9
-10 6 -5 -3 -10 1 -10 11 0 14 -2 15 -17 3 -11 -10 -14 -10 -9 -1 4 7 1 12 -9
12 -9 0 -13 5 -10 10 3 6 -1 10 -9 10 -9 0 -16 5 -16 12 0 6 -3 8 -7 5 -3 -4
-37 22 -74 58 -57 55 -72 65 -103 65 -25 0 -36 4 -36 15 0 12 -30 21 -42 13
-2 -1 -14 5 -28 12 -14 7 -50 13 -82 12 -35 -1 -58 2 -58 9 0 6 -7 3 -16 -5
-18 -19 -30 -20 -40 -5 -4 8 -9 7 -15 -2 -7 -11 -9 -9 -9 5 0 19 -1 19 -20 -2
-12 -12 -26 -22 -33 -23 -7 0 -23 -2 -37 -4 -41 -5 -121 -8 -182 -6 -48 1 -58
4 -58 19 0 15 -2 15 -10 2 -9 -13 -12 -13 -21 3 -5 9 -15 17 -22 17 -7 0 -6
-4 3 -10 10 -7 11 -10 2 -10 -7 0 -15 7 -18 15 -4 8 -10 12 -15 10 -11 -7 -23
40 -14 55 4 6 14 8 24 4 9 -3 38 -15 65 -26z m1570 -39 c133 -23 257 -111 401
-280 222 -263 332 -347 513 -395 78 -20 86 -25 78 -50 -4 -14 -14 -19 -38 -17
-18 1 -33 2 -33 3 0 1 -11 4 -25 6 -13 3 -29 9 -34 14 -4 4 -15 6 -22 3 -8 -3
-14 0 -14 7 0 6 -4 8 -10 5 -5 -3 -21 1 -34 10 -14 9 -29 16 -33 16 -24 -2
-44 12 -38 27 5 13 3 14 -5 6 -9 -9 -16 -8 -30 5 -10 9 -32 28 -48 43 -17 14
-27 30 -24 34 4 4 -3 4 -16 1 -12 -3 -20 -1 -17 3 6 10 -76 96 -88 92 -5 -1
-6 2 -2 8 3 5 -1 13 -9 16 -9 3 -16 10 -16 16 0 5 -13 21 -28 36 -16 15 -32
35 -35 45 -4 9 -10 16 -14 15 -4 -2 -10 2 -12 7 -9 19 -36 43 -58 49 -15 5
-20 12 -16 23 4 10 2 14 -4 10 -5 -3 -16 5 -23 18 -7 14 -26 30 -41 37 -15 7
-33 23 -40 35 -7 12 -15 20 -19 18 -4 -3 -20 7 -36 21 -44 40 -93 57 -164 59
-36 2 -69 4 -75 5 -5 1 -12 2 -15 0 -24 -9 -50 -8 -50 3 0 8 -4 7 -10 -3 -9
-13 -11 -13 -20 0 -9 13 -12 13 -21 -4 -9 -15 -13 -16 -21 -5 -8 12 -10 12
-15 0 -4 -10 -10 -5 -18 15 l-12 29 -12 -23 c-10 -19 -15 -21 -27 -11 -11 9
-14 9 -14 -1 0 -7 -7 -10 -15 -6 -8 3 -15 2 -15 -3 0 -4 -15 -7 -32 -6 -18 1
-36 -3 -40 -9 -5 -7 -8 -7 -8 2 0 28 146 74 275 85 44 4 110 -1 179 -14z m634
-31 c-9 -13 -24 -24 -34 -26 -14 -3 -11 3 11 22 37 31 41 32 23 4z m-368 2 c0
-5 -7 -7 -15 -4 -8 4 -15 8 -15 10 0 2 7 4 15 4 8 0 15 -4 15 -10z m-2076 -34
c-5 -14 -111 -72 -119 -65 -4 5 105 79 116 79 5 0 6 -6 3 -14z m506 -16 c-8
-5 -22 -9 -30 -9 -10 0 -8 3 5 9 27 12 43 12 25 0z m-169 -9 c-8 -5 -20 -7
-28 -4 -21 8 -15 13 15 13 20 0 23 -3 13 -9z m59 -1 c0 -5 -4 -10 -10 -10 -5
0 -10 5 -10 10 0 6 5 10 10 10 6 0 10 -4 10 -10z m1901 -10 c30 -6 68 -13 84
-16 48 -8 195 -54 258 -80 76 -32 242 -131 315 -188 81 -63 138 -116 124 -116
-6 0 -14 5 -17 10 -5 8 -12 7 -23 -2 -10 -8 -13 -9 -9 -1 4 7 -1 14 -13 18
-11 3 -20 10 -20 15 0 11 -120 94 -120 83 0 -4 -4 -3 -8 3 -10 15 -72 47 -72
37 0 -5 -5 -1 -10 7 -5 8 -15 15 -22 16 -7 0 -39 12 -71 27 -32 15 -64 27 -71
27 -8 0 -16 4 -18 8 -6 15 -281 85 -330 84 -10 -1 -18 3 -18 9 0 5 -5 9 -11 9
-5 0 -7 -5 -3 -12 5 -7 3 -8 -7 -2 -8 5 -21 9 -30 9 -9 0 -22 5 -30 12 -8 6
-17 12 -22 12 -13 1 -47 26 -47 33 0 11 128 10 191 -2z m677 -180 c133 -67
216 -158 235 -257 5 -25 3 -33 -8 -33 -24 0 -29 4 -30 24 -1 10 -9 22 -17 27
-9 5 -19 20 -22 34 -4 14 -11 23 -16 20 -6 -3 -10 0 -10 8 0 18 -59 77 -77 77
-8 0 -12 4 -9 9 5 7 -15 22 -34 25 -9 2 -150 97 -150 102 0 16 71 -2 138 -36z
m417 1 c-15 -14 -116 -66 -153 -79 -34 -12 -93 0 -62 12 64 25 207 75 215 75
6 1 6 -2 0 -8z m-2160 -31 c3 -5 1 -10 -4 -10 -6 0 -11 5 -11 10 0 6 2 10 4
10 3 0 8 -4 11 -10z m60 -10 c13 -5 14 -9 5 -9 -8 0 -24 4 -35 9 -13 5 -14 9
-5 9 8 0 24 -4 35 -9z m82 -6 c-3 -3 -12 -4 -19 -1 -8 3 -5 6 6 6 11 1 17 -2
13 -5z m-419 -50 c2 -24 -3 -35 -23 -48 -35 -23 -31 -60 8 -64 15 -2 27 -7 27
-12 0 -11 29 -40 40 -40 5 0 32 25 61 55 42 44 55 53 66 43 11 -9 17 -9 24 3
6 9 9 10 9 2 0 -7 7 -10 15 -7 12 5 15 -5 15 -59 0 -141 30 -153 159 -62 82
58 86 59 128 30 21 -14 42 -25 48 -25 6 0 25 -35 41 -77 46 -117 72 -122 124
-24 38 72 40 72 165 7 l79 -41 16 -65 c36 -141 104 -285 185 -383 l43 -54 -26
-19 c-98 -71 -162 -163 -162 -232 0 -28 -3 -33 -17 -28 -9 4 -41 -1 -71 -10
-45 -12 -67 -27 -113 -75 -31 -32 -61 -59 -67 -59 -17 0 -61 59 -97 129 -59
118 -108 150 -320 215 -131 39 -169 53 -325 117 -141 57 -189 60 -300 19 -109
-40 -184 -48 -234 -25 -69 33 -125 149 -131 274 -4 89 4 121 34 134 232 96
358 193 456 351 l40 64 50 -1 c48 -2 50 -3 53 -33z m718 -10 c32 -13 60 -15
149 -10 61 3 130 8 155 12 41 5 46 4 46 -14 0 -12 -5 -18 -13 -15 -7 3 -10 10
-6 16 3 6 1 7 -5 3 -9 -5 -9 -13 -2 -27 9 -16 7 -19 -10 -19 -11 0 -20 5 -20
10 0 6 -4 10 -10 10 -5 0 -10 -7 -10 -16 0 -10 -6 -14 -15 -11 -8 4 -16 3 -19
-1 -2 -4 -30 -6 -63 -5 -32 0 -64 -4 -72 -10 -12 -10 -13 -9 -6 2 6 11 2 13
-23 8 -17 -4 -34 -2 -37 4 -4 5 -16 7 -27 4 -12 -4 -27 0 -38 10 -10 9 -23 14
-29 11 -5 -4 -15 2 -21 13 -8 16 -6 22 7 30 24 14 24 14 69 -5z m-1496 0 c0
-3 -44 -49 -99 -102 -74 -73 -106 -113 -130 -162 -33 -69 -60 -177 -63 -254
-2 -54 -12 -66 -29 -34 -17 31 -5 189 21 262 11 33 32 79 45 103 35 58 125
146 177 172 41 20 78 27 78 15z m2770 -38 c0 -11 -19 -15 -25 -6 -3 5 1 10 9
10 9 0 16 -2 16 -4z m163 -106 c10 -12 9 -12 -4 -2 -9 6 -18 9 -21 6 -3 -3 -9
-1 -12 4 -9 15 22 8 37 -8z m-755 -20 c17 -27 10 -25 -19 6 -13 14 -17 23 -9
19 9 -3 21 -14 28 -25z m802 -41 c7 -11 9 -32 5 -46 -7 -30 -63 -86 -76 -77
-5 3 -9 0 -9 -6 0 -6 -5 -8 -10 -5 -6 4 -18 1 -26 -6 -26 -21 -65 -27 -99 -15
-16 7 -17 6 -5 -3 11 -9 2 -10 -40 -5 -75 8 -80 10 -80 36 0 21 4 23 57 22
107 -1 219 45 245 101 14 30 24 31 38 4z m161 -106 c13 -15 12 -15 -8 -4 -24
12 -29 21 -14 21 5 0 15 -7 22 -17z m-3132 -185 c-15 -40 -28 -82 -29 -92 0
-28 -10 -13 -21 31 -10 47 4 97 34 118 42 29 46 17 16 -57z m-299 -303 c0 -3
-22 -51 -49 -108 -28 -59 -58 -143 -71 -199 -13 -54 -24 -98 -26 -98 -10 0 12
148 32 212 4 14 1 16 -12 11 -14 -5 -9 10 20 62 45 82 76 124 94 124 6 1 12
-1 12 -4z m2938 -47 c47 -24 86 -73 98 -123 10 -45 12 -46 54 -24 79 41 170
32 244 -24 44 -34 81 -111 79 -167 -1 -39 -7 -49 -40 -77 -33 -29 -35 -33 -16
-33 12 0 34 5 50 11 74 29 169 -8 198 -77 20 -47 19 -125 -1 -167 -39 -82
-172 -118 -265 -71 -32 16 -89 80 -89 100 0 8 7 25 16 38 21 34 1 42 -35 15
-93 -69 -251 -45 -259 39 -4 39 -11 40 -43 6 -41 -44 -98 -67 -164 -67 -76 0
-116 19 -178 86 l-48 52 4 -48 c5 -47 4 -48 -34 -67 -75 -39 -155 -22 -229 49
-61 58 -74 54 -45 -15 17 -42 14 -53 -28 -81 -42 -29 -110 -41 -163 -31 -143
29 -159 250 -24 318 54 27 95 31 141 15 57 -21 58 -20 44 22 -26 76 5 179 68
227 99 76 223 71 303 -11 14 -16 28 -23 30 -18 22 56 46 83 103 113 79 41 159
44 229 10z m-1718 -203 c10 -6 44 -15 70 -18 8 -1 17 -4 20 -7 18 -20 79 -47
91 -39 7 4 10 11 6 16 -5 4 -12 1 -16 -6 -6 -10 -10 -10 -16 -1 -4 6 -17 16
-29 21 -19 9 -19 9 4 4 14 -4 34 -7 44 -8 59 -6 -6 -65 -80 -72 -68 -7 -162
23 -211 68 -22 20 -22 21 -6 40 14 15 27 18 65 14 26 -3 52 -8 58 -12z m-546
-358 c42 -28 245 -151 391 -237 44 -26 136 -79 203 -120 l124 -72 -39 -23
c-86 -52 -177 -221 -243 -450 -13 -44 -25 -82 -27 -84 -2 -3 -17 5 -33 17 -16
12 -34 22 -40 22 -6 0 -13 7 -16 15 -4 8 -12 15 -19 15 -22 0 -138 91 -212
167 -118 121 -207 250 -273 398 -22 50 -34 65 -50 65 -11 0 -23 -7 -26 -15
-15 -39 92 -267 185 -392 65 -87 203 -221 278 -270 75 -50 156 -96 191 -110
41 -16 42 -16 89 13 31 19 63 52 92 94 24 36 49 63 55 62 6 -2 45 -4 86 -5 95
-1 157 25 220 92 39 42 52 50 95 56 28 3 59 8 71 11 19 5 22 0 27 -46 4 -29
17 -72 31 -96 l25 -44 -40 -32 c-114 -92 -167 -284 -109 -397 39 -77 106 -121
222 -145 22 -5 27 -13 33 -48 4 -24 18 -64 31 -89 25 -51 113 -136 150 -145
19 -5 24 -13 24 -39 0 -28 -4 -33 -37 -43 -67 -20 -284 -54 -433 -68 -194 -18
-738 -12 -900 10 -271 37 -441 75 -542 119 -66 29 -70 40 -94 247 -20 174 -15
430 13 620 4 25 7 47 8 50 1 3 4 25 9 50 31 195 88 396 167 598 31 78 129 269
161 315 l19 27 46 -32 c25 -18 64 -45 87 -61z m1952 -114 c43 -25 60 -28 134
-28 68 0 93 4 127 22 35 19 43 20 53 8 7 -8 37 -24 68 -36 56 -20 89 -21 163
-3 22 5 28 1 39 -26 17 -41 85 -98 135 -112 22 -6 42 -13 44 -14 4 -3 9 -84
15 -224 3 -90 -11 -137 -65 -219 l-23 -34 50 28 c49 27 108 35 138 18 24 -13
86 -73 86 -82 0 -5 -14 -14 -30 -21 -42 -17 -68 -53 -76 -106 -3 -24 -9 -44
-13 -44 -4 0 -30 -21 -57 -46 -27 -26 -41 -44 -31 -41 13 5 17 1 17 -21 1 -48
36 -109 79 -138 37 -24 40 -29 28 -43 -8 -9 -12 -22 -9 -30 3 -10 0 -12 -11
-8 -9 3 -19 2 -22 -3 -8 -13 42 -5 60 10 8 7 15 18 15 25 0 11 108 29 119 19
10 -9 -81 -83 -109 -89 -30 -6 -31 -9 -26 -39 15 -77 16 -94 5 -138 -15 -63
-65 -127 -125 -160 -90 -48 -167 -45 -180 7 -3 14 -9 25 -13 25 -3 0 -19 -22
-34 -48 -32 -52 -82 -93 -141 -112 -35 -11 -41 -11 -52 5 -12 16 -15 16 -43
-4 -57 -41 -118 -62 -183 -62 -106 -1 -214 49 -264 123 -44 65 -54 70 -80 43
-29 -31 -86 -41 -154 -27 -123 26 -204 114 -205 223 0 54 2 60 34 87 26 22 31
31 21 37 -9 5 -11 4 -6 -4 5 -8 -2 -11 -26 -10 -18 1 -45 -3 -59 -9 -41 -16
-52 -2 -44 56 6 45 5 51 -14 57 -26 8 -140 141 -147 171 -11 45 78 132 167
164 l51 17 -41 24 c-85 48 -122 149 -82 227 17 33 29 43 62 52 38 10 44 9 80
-16 22 -15 42 -24 45 -21 4 3 -1 24 -10 47 -9 22 -16 65 -16 95 0 46 36 326
43 330 1 1 30 12 63 24 36 13 75 37 94 56 32 33 33 33 58 17 39 -26 155 -23
207 4 22 12 41 22 41 23 1 0 23 -11 50 -26z m-608 -86 c15 0 15 -1 -2 -115
-17 -115 -50 -184 -116 -246 -51 -48 -133 -92 -197 -106 -32 -8 -35 -6 -54 31
-11 22 -31 45 -44 51 -16 7 -25 19 -25 34 0 13 -14 39 -31 59 l-31 35 28 23
c15 12 116 73 223 134 143 82 201 111 216 106 11 -3 26 -6 33 -6z m-510 -99
c28 1 52 0 52 -2 0 -6 -99 -76 -108 -76 -4 0 -38 21 -77 46 l-70 45 75 -7 c41
-4 99 -7 128 -6z m2064 -4 c38 -20 119 -76 179 -126 26 -21 49 -38 52 -38 17
0 169 -158 187 -194 71 -147 -66 -212 -256 -122 -168 80 -261 234 -259 431 0
44 3 50 25 56 37 10 38 10 72 -7z m-2072 -209 c18 -9 30 -24 30 -35 0 -17 -7
-20 -40 -20 -28 0 -40 -4 -40 -14 0 -17 22 -26 60 -26 70 0 109 -46 96 -114
-8 -43 -74 -103 -124 -112 -75 -14 -207 10 -250 46 l-24 19 45 95 c27 57 61
110 86 135 36 36 47 41 86 41 26 0 59 -7 75 -15z m500 -95 c0 -5 -5 -10 -11
-10 -5 0 -7 5 -4 10 3 6 8 10 11 10 2 0 4 -4 4 -10z m1457 -91 c-29 -8 -31 -5
-17 21 11 21 12 21 25 3 12 -16 11 -19 -8 -24z m-2248 -163 c14 -17 -2 -53
-45 -101 l-27 -30 7 30 c11 47 38 115 46 115 4 0 13 -6 19 -14z m2489 -21 c46
-14 52 -19 62 -53 13 -47 13 -67 0 -114 -30 -105 -161 -169 -250 -123 -82 42
-57 144 39 161 77 13 113 60 37 49 -36 -6 -44 -4 -50 11 -11 30 43 73 105 83
3 1 29 -6 57 -14z m82 -514 c15 -54 12 -93 -9 -128 -23 -36 -59 -52 -72 -32
-7 11 -9 11 -9 1 0 -7 -4 -11 -9 -8 -5 3 -17 -20 -27 -51 -20 -62 -64 -103
-110 -103 -23 0 -22 2 15 51 46 60 63 114 64 197 0 55 3 61 29 76 16 10 38 31
50 47 l22 29 23 -22 c13 -12 27 -38 33 -57z m-1308 -503 c-53 -15 -214 24
-220 53 -2 13 7 17 45 17 27 1 66 8 88 15 l39 14 37 -46 37 -46 -26 -7z m748
67 c1 -11 2 -25 1 -32 -1 -11 -64 -28 -141 -37 -42 -5 -43 -4 -15 6 35 13 105
59 125 83 15 18 27 10 30 -20z m-2922 -83 c14 -9 6 -72 -10 -72 -35 0 -64 51
-41 73 9 9 35 8 51 -1z m98 -32 c21 -8 24 -14 16 -22 -7 -7 -12 -20 -12 -30 0
-21 -9 -22 -45 -6 -25 11 -30 24 -19 52 7 19 22 20 60 6z m1858 -73 l21 -18
-30 6 c-16 3 -40 7 -53 10 -41 8 -66 17 -80 32 -17 17 -17 17 33 30 37 9 42 8
64 -16 12 -14 33 -34 45 -44z m-1665 37 c26 -9 -3 -24 -63 -34 -70 -11 -86 -6
-86 29 l0 28 68 -9 c37 -5 73 -11 81 -14z"/>
<path d="M2016 5218 c3 -5 10 -6 15 -3 13 9 11 12 -6 12 -8 0 -12 -4 -9 -9z"/>
<path d="M5087 4620 c3 -11 9 -17 15 -14 5 3 4 12 -3 20 -16 19 -18 18 -12 -6z"/>
<path d="M3726 4384 c-20 -19 -20 -24 2 -50 46 -57 122 -70 122 -21 0 27 -15
47 -50 71 -31 20 -54 20 -74 0z"/>
<path d="M2630 4381 c-52 -16 -87 -41 -105 -75 -20 -36 -20 -36 2 -58 l22 -22
47 23 c92 46 156 26 192 -60 21 -50 49 -66 79 -44 13 10 18 27 18 67 0 45 -5
61 -29 92 -50 66 -151 100 -226 77z"/>
<path d="M3605 4015 c-72 -26 -119 -103 -81 -134 10 -9 24 -6 57 9 24 11 58
20 75 20 48 0 97 -38 114 -90 8 -25 19 -51 23 -58 13 -20 55 -14 71 10 50 71
-27 205 -137 242 -57 19 -70 19 -122 1z"/>
<path d="M3381 2264 c0 -21 5 -61 9 -89 7 -41 8 -34 4 34 -5 86 -15 128 -13
55z"/>
<path d="M3403 2055 c0 -27 2 -38 4 -22 2 15 2 37 0 50 -2 12 -4 0 -4 -28z"/>
<path d="M4142 3080 c-27 -12 -51 -62 -44 -96 5 -26 46 -64 69 -64 49 0 94 55
85 106 -7 44 -65 72 -110 54z"/>
<path d="M4870 3027 c-14 -7 -30 -28 -37 -47 -31 -93 97 -148 142 -61 21 42
19 59 -14 92 -32 32 -53 35 -91 16z"/>
<path d="M4374 2816 c-8 -34 21 -84 61 -103 36 -17 46 -40 21 -49 -8 -3 -24 0
-36 6 -33 18 -49 -3 -25 -30 14 -15 29 -21 55 -19 19 2 45 -3 57 -9 29 -16 54
-15 81 4 27 19 31 60 5 49 -34 -14 -61 -17 -67 -7 -11 18 5 42 28 42 54 0 109
62 92 105 -7 19 -36 20 -36 2 0 -8 -11 -19 -23 -26 -29 -15 -136 -9 -147 9 -4
6 -11 12 -16 11 -5 0 -9 9 -8 19 1 29 -34 26 -42 -4z"/>
<path d="M5325 5564 c-51 -51 -32 -149 43 -221 88 -86 298 91 211 178 -24 24
-57 20 -103 -13 -19 -14 -31 -17 -34 -10 -2 6 -13 26 -25 44 -26 38 -66 48
-92 22z"/>
<path d="M5704 5216 c-27 -22 -29 -30 -29 -93 0 -56 5 -76 27 -113 14 -25 38
-56 51 -69 60 -55 184 -10 259 93 34 47 35 77 6 110 -34 37 -65 41 -120 13
-50 -25 -58 -25 -58 4 0 28 -42 70 -76 75 -24 4 -39 -1 -60 -20z"/>
<path d="M1395 5016 c-14 -14 -25 -34 -25 -46 0 -25 -10 -25 -43 0 -48 38
-127 13 -127 -40 0 -58 56 -115 133 -137 52 -14 59 -14 81 0 51 34 84 155 56
207 -6 11 -19 24 -30 30 -16 9 -25 6 -45 -14z"/>
<path d="M1070 4563 c-21 -8 -60 -45 -60 -57 0 -6 -5 -18 -10 -26 -8 -12 -13
-11 -33 9 -14 12 -43 25 -65 28 -34 5 -45 1 -66 -20 -38 -38 -36 -100 5 -150
40 -49 104 -85 163 -93 42 -6 50 -4 78 22 66 63 97 179 63 244 -13 25 -45 52
-57 49 -2 0 -10 -3 -18 -6z"/>
<path d="M5764 4499 c-40 -14 -58 -48 -62 -112 -6 -103 49 -182 135 -194 29
-4 49 0 69 13 76 47 141 134 127 171 -18 52 -78 69 -133 38 -34 -19 -40 -18
-40 5 0 57 -49 97 -96 79z"/>
<path d="M5496 4005 c-8 -8 -18 -24 -21 -35 -8 -24 -18 -25 -35 -5 -20 25 -69
19 -82 -9 -23 -52 50 -136 121 -138 39 -1 60 16 83 70 23 51 17 95 -15 117
-27 19 -32 19 -51 0z"/>
<path d="M1045 3725 c-14 -13 -25 -33 -25 -43 0 -28 -11 -34 -31 -16 -41 37
-122 33 -135 -8 -25 -79 64 -167 172 -171 57 -2 58 -2 88 41 28 39 31 52 31
114 0 61 -3 72 -24 89 -31 25 -47 24 -76 -6z"/>
<path d="M6023 3683 c-12 -2 -32 -20 -44 -39 -18 -29 -21 -46 -16 -93 6 -67
37 -134 72 -157 54 -35 186 8 237 77 11 14 22 44 25 67 11 79 -64 114 -136 62
-16 -11 -31 -20 -34 -20 -3 0 -8 16 -11 35 -6 30 -47 78 -65 74 -3 -1 -16 -4
-28 -6z"/>
<path d="M5761 3213 c-29 -20 -28 -81 1 -118 32 -40 82 -59 115 -43 37 18 64
58 70 106 9 71 -36 97 -76 45 l-20 -28 -15 21 c-20 28 -50 35 -75 17z"/>
<path d="M1259 3135 c-31 -17 -51 -46 -68 -98 l-13 -38 -45 27 c-110 64 -228
4 -207 -107 23 -120 137 -203 279 -203 82 -1 106 13 155 87 42 64 61 121 62
187 2 117 -80 190 -163 145z"/>
<path d="M1628 2719 c-43 -24 -4 -119 59 -146 l37 -15 33 35 c38 43 50 79 34
113 -13 30 -55 33 -73 5 -12 -19 -12 -19 -36 0 -28 22 -31 22 -54 8z"/>
<path d="M1520 2252 c-11 -10 -26 -29 -33 -44 l-14 -28 -23 20 c-12 11 -31 22
-41 25 -25 8 -70 -15 -79 -40 -9 -25 9 -81 35 -113 51 -60 154 -81 192 -39 28
31 53 100 53 145 0 67 -50 107 -90 74z"/>
<path d="M1522 1708 c-7 -7 -12 -18 -12 -25 0 -16 -8 -16 -40 1 -30 17 -60 5
-60 -25 0 -56 86 -114 129 -87 50 31 55 148 6 148 -6 0 -16 -5 -23 -12z"/>
<path d="M5492 1467 c-6 -7 -17 -34 -24 -60 -11 -41 -10 -49 4 -63 26 -26 52
-3 66 57 9 39 9 55 1 65 -14 18 -33 18 -47 1z"/>
<path d="M1846 1444 c-10 -26 20 -84 44 -84 29 0 34 21 16 64 -16 38 -49 49
-60 20z"/>
<path d="M1703 1434 c-8 -22 13 -56 52 -83 66 -45 89 2 31 63 -35 38 -72 47
-83 20z"/>
<path d="M5601 1405 c-34 -39 -38 -57 -17 -74 11 -9 21 -6 45 15 43 36 56 61
40 80 -18 22 -34 17 -68 -21z"/>
<path d="M5283 1404 c-6 -17 15 -37 29 -28 13 9 9 32 -7 38 -9 3 -18 -1 -22
-10z"/>
</g>
</svg>
