<svg width="40" height="40" viewBox="0 0 40 40" fill="none" xmlns="http://www.w3.org/2000/svg">
<path d="M20 1C30.4934 1 39 9.50659 39 20C39 30.4934 30.4934 39 20 39C9.50659 39 1 30.4934 1 20C1 9.50659 9.50659 1 20 1Z" fill="#E8DCC8"/>
<path d="M20 1C30.4934 1 39 9.50659 39 20C39 30.4934 30.4934 39 20 39C9.50659 39 1 30.4934 1 20C1 9.50659 9.50659 1 20 1Z" stroke="#C4A265" stroke-width="2"/>
<path d="M18.2253 17.9537C18.1866 17.5641 18.0208 17.2615 17.7278 17.0457C17.4348 16.83 17.0372 16.7222 16.5349 16.7222C16.1937 16.7222 15.9055 16.7705 15.6705 16.867C15.4354 16.9604 15.2551 17.0908 15.1295 17.2582C15.0072 17.4257 14.946 17.6156 14.946 17.8281C14.9396 18.0052 14.9766 18.1598 15.0571 18.2918C15.1408 18.4238 15.2551 18.5381 15.4 18.6347C15.5449 18.728 15.7123 18.8101 15.9023 18.881C16.0922 18.9486 16.2951 19.0065 16.5108 19.0548L17.3994 19.2673C17.8309 19.3639 18.2269 19.4927 18.5875 19.6537C18.9481 19.8147 19.2604 20.0127 19.5244 20.2477C19.7884 20.4828 19.9929 20.7597 20.1378 21.0784C20.2859 21.3972 20.3616 21.7626 20.3648 22.1747C20.3616 22.78 20.207 23.3048 19.9011 23.7491C19.5985 24.1902 19.1606 24.5331 18.5875 24.7778C18.0176 25.0193 17.3302 25.1401 16.5253 25.1401C15.7268 25.1401 15.0313 25.0177 14.4389 24.773C13.8497 24.5283 13.3893 24.1661 13.0577 23.6864C12.7293 23.2034 12.557 22.6062 12.5409 21.8946H14.5645C14.587 22.2262 14.682 22.5031 14.8494 22.7253C15.0201 22.9442 15.2471 23.11 15.5304 23.2227C15.817 23.3322 16.1405 23.3869 16.5011 23.3869C16.8553 23.3869 17.1628 23.3354 17.4236 23.2324C17.6876 23.1294 17.892 22.9861 18.0369 22.8026C18.1818 22.619 18.2543 22.4081 18.2543 22.1699C18.2543 21.9477 18.1883 21.761 18.0563 21.6097C17.9275 21.4583 17.7375 21.3295 17.4864 21.2233C17.2384 21.117 16.9342 21.0205 16.5736 20.9335L15.4966 20.6631C14.6627 20.4602 14.0043 20.1431 13.5213 19.7116C13.0384 19.2802 12.7985 18.6991 12.8017 17.9682C12.7985 17.3693 12.9579 16.8461 13.2798 16.3986C13.605 15.951 14.0509 15.6017 14.6176 15.3506C15.1843 15.0994 15.8282 14.9739 16.5494 14.9739C17.2835 14.9739 17.9242 15.0994 18.4716 15.3506C19.0222 15.6017 19.4504 15.951 19.7563 16.3986C20.0621 16.8461 20.2199 17.3645 20.2295 17.9537H18.2253ZM25.7316 15.1091H27.7987V22.0057C27.7987 22.6432 27.6554 23.197 27.3688 23.667C27.0855 24.1371 26.6911 24.4993 26.1856 24.7537C25.6801 25.008 25.0925 25.1352 24.4228 25.1352C23.8272 25.1352 23.2862 25.0306 22.8001 24.8213C22.3171 24.6088 21.934 24.2868 21.6506 23.8554C21.3673 23.4207 21.2272 22.875 21.2305 22.2182H23.312C23.3184 22.479 23.3716 22.7027 23.4714 22.8895C23.5744 23.073 23.7145 23.2147 23.8915 23.3145C24.0719 23.4111 24.2844 23.4594 24.529 23.4594C24.7866 23.4594 25.004 23.4046 25.181 23.2952C25.3613 23.1825 25.4982 23.0183 25.5915 22.8026C25.6849 22.5868 25.7316 22.3212 25.7316 22.0057V15.1091Z" fill="#5C4033"/>
</svg>
